<svg width="55" height="55" viewBox="0 0 55 55" fill="none" xmlns="http://www.w3.org/2000/svg">
<path d="M29.7916 16.0416H25.2083V25.2083H16.0416V29.7916H25.2083V38.9583H29.7916V29.7916H38.9583V25.2083H29.7916V16.0416ZM27.5 4.58325C14.85 4.58325 4.58331 14.8499 4.58331 27.4999C4.58331 40.1499 14.85 50.4166 27.5 50.4166C40.15 50.4166 50.4166 40.1499 50.4166 27.4999C50.4166 14.8499 40.15 4.58325 27.5 4.58325ZM27.5 45.8333C17.3937 45.8333 9.16665 37.6062 9.16665 27.4999C9.16665 17.3937 17.3937 9.16659 27.5 9.16659C37.6062 9.16659 45.8333 17.3937 45.8333 27.4999C45.8333 37.6062 37.6062 45.8333 27.5 45.8333Z" fill="#C4C4C4"/>
</svg>
