<svg width="28" height="26" viewBox="0 0 28 26" fill="none" xmlns="http://www.w3.org/2000/svg">
<g filter="url(#filter0_i_32_3417)">
<path fill-rule="evenodd" clip-rule="evenodd" d="M0.126953 12.6362C0.126953 11.5502 0.126953 10.5851 0.144328 9.72399H27.0427C27.0601 10.5851 27.0601 11.5502 27.0601 12.6362V15.2248C27.0601 20.106 27.0601 22.5466 25.4824 24.063C23.9046 25.5794 21.3654 25.5794 16.2868 25.5794H10.9002C5.82164 25.5794 3.28236 25.5794 1.70466 24.063C0.126953 22.5466 0.126953 20.106 0.126953 15.2248V12.6362ZM20.3268 15.2248C21.0705 15.2248 21.6734 14.6454 21.6734 13.9305C21.6734 13.2157 21.0705 12.6362 20.3268 12.6362C19.583 12.6362 18.9801 13.2157 18.9801 13.9305C18.9801 14.6454 19.583 15.2248 20.3268 15.2248ZM20.3268 20.4021C21.0705 20.4021 21.6734 19.8226 21.6734 19.1078C21.6734 18.393 21.0705 17.8135 20.3268 17.8135C19.583 17.8135 18.9801 18.393 18.9801 19.1078C18.9801 19.8226 19.583 20.4021 20.3268 20.4021ZM14.9402 13.9305C14.9402 14.6454 14.3372 15.2248 13.5935 15.2248C12.8498 15.2248 12.2469 14.6454 12.2469 13.9305C12.2469 13.2157 12.8498 12.6362 13.5935 12.6362C14.3372 12.6362 14.9402 13.2157 14.9402 13.9305ZM14.9402 19.1078C14.9402 19.8226 14.3372 20.4021 13.5935 20.4021C12.8498 20.4021 12.2469 19.8226 12.2469 19.1078C12.2469 18.393 12.8498 17.8135 13.5935 17.8135C14.3372 17.8135 14.9402 18.393 14.9402 19.1078ZM6.86023 15.2248C7.60397 15.2248 8.20688 14.6454 8.20688 13.9305C8.20688 13.2157 7.60397 12.6362 6.86023 12.6362C6.11649 12.6362 5.51357 13.2157 5.51357 13.9305C5.51357 14.6454 6.11649 15.2248 6.86023 15.2248ZM6.86023 20.4021C7.60397 20.4021 8.20688 19.8226 8.20688 19.1078C8.20688 18.393 7.60397 17.8135 6.86023 17.8135C6.11649 17.8135 5.51357 18.393 5.51357 19.1078C5.51357 19.8226 6.11649 20.4021 6.86023 20.4021Z" fill="#FFC91C"/>
<path d="M1.70466 3.79805C2.6395 2.89953 3.91196 2.53342 5.85024 2.38424C5.85024 2.38424 5.72654 1.85168 5.85024 1.5505C6.14996 0.820742 7.5877 0.790341 7.87022 1.52692C7.97811 1.80821 7.87022 2.29836 7.87022 2.29836C8.7661 2.28166 9.7703 2.28166 10.9002 2.28166H16.2868C17.4167 2.28166 18.4209 2.28166 19.3168 2.29836C19.3168 2.29836 19.216 1.82613 19.3168 1.55307C19.5898 0.812988 21.0366 0.823564 21.3368 1.55307C21.4603 1.85325 21.3368 2.38424 21.3368 2.38424C23.2751 2.53342 24.5475 2.89953 25.4824 3.79805C26.4172 4.69656 26.7981 5.91956 26.9533 7.78251H0.233685C0.388895 5.91956 0.769812 4.69656 1.70466 3.79805Z" fill="#FFC91C"/>
</g>
<defs>
<filter id="filter0_i_32_3417" x="0.126953" y="0.988647" width="26.9331" height="26.5907" filterUnits="userSpaceOnUse" color-interpolation-filters="sRGB">
<feFlood flood-opacity="0" result="BackgroundImageFix"/>
<feBlend mode="normal" in="SourceGraphic" in2="BackgroundImageFix" result="shape"/>
<feColorMatrix in="SourceAlpha" type="matrix" values="0 0 0 0 0 0 0 0 0 0 0 0 0 0 0 0 0 0 127 0" result="hardAlpha"/>
<feOffset dy="2"/>
<feGaussianBlur stdDeviation="2"/>
<feComposite in2="hardAlpha" operator="arithmetic" k2="-1" k3="1"/>
<feColorMatrix type="matrix" values="0 0 0 0 0 0 0 0 0 0 0 0 0 0 0 0 0 0 0.25 0"/>
<feBlend mode="normal" in2="shape" result="effect1_innerShadow_32_3417"/>
</filter>
</defs>
</svg>
