<svg width="28" height="26" viewBox="0 0 28 26" fill="none" xmlns="http://www.w3.org/2000/svg">
<path d="M19.857 14.9906C20.5489 14.9906 21.1097 14.4548 21.1097 13.7938C21.1097 13.1328 20.5489 12.5969 19.857 12.5969C19.1652 12.5969 18.6043 13.1328 18.6043 13.7938C18.6043 14.4548 19.1652 14.9906 19.857 14.9906Z" fill="#7D7D7D"/>
<path d="M19.857 19.7781C20.5489 19.7781 21.1097 19.2422 21.1097 18.5812C21.1097 17.9202 20.5489 17.3843 19.857 17.3843C19.1652 17.3843 18.6043 17.9202 18.6043 18.5812C18.6043 19.2422 19.1652 19.7781 19.857 19.7781Z" fill="#7D7D7D"/>
<path d="M14.8462 13.7938C14.8462 14.4548 14.2854 14.9906 13.5935 14.9906C12.9017 14.9906 12.3408 14.4548 12.3408 13.7938C12.3408 13.1328 12.9017 12.5969 13.5935 12.5969C14.2854 12.5969 14.8462 13.1328 14.8462 13.7938Z" fill="#7D7D7D"/>
<path d="M14.8462 18.5812C14.8462 19.2422 14.2854 19.7781 13.5935 19.7781C12.9017 19.7781 12.3408 19.2422 12.3408 18.5812C12.3408 17.9202 12.9017 17.3843 13.5935 17.3843C14.2854 17.3843 14.8462 17.9202 14.8462 18.5812Z" fill="#7D7D7D"/>
<path d="M7.32999 14.9906C8.02184 14.9906 8.5827 14.4548 8.5827 13.7938C8.5827 13.1328 8.02184 12.5969 7.32999 12.5969C6.63815 12.5969 6.07729 13.1328 6.07729 13.7938C6.07729 14.4548 6.63815 14.9906 7.32999 14.9906Z" fill="#7D7D7D"/>
<path d="M7.32999 19.7781C8.02184 19.7781 8.5827 19.2422 8.5827 18.5812C8.5827 17.9202 8.02184 17.3843 7.32999 17.3843C6.63815 17.3843 6.07729 17.9202 6.07729 18.5812C6.07729 19.2422 6.63815 19.7781 7.32999 19.7781Z" fill="#7D7D7D"/>
<path fill-rule="evenodd" clip-rule="evenodd" d="M21.1097 13.7938C21.1097 14.4548 20.5489 14.9906 19.857 14.9906C19.1652 14.9906 18.6043 14.4548 18.6043 13.7938C18.6043 13.1328 19.1652 12.5969 19.857 12.5969C20.5489 12.5969 21.1097 13.1328 21.1097 13.7938ZM21.1097 18.5812C21.1097 19.2422 20.5489 19.7781 19.857 19.7781C19.1652 19.7781 18.6043 19.2422 18.6043 18.5812C18.6043 17.9202 19.1652 17.3843 19.857 17.3843C20.5489 17.3843 21.1097 17.9202 21.1097 18.5812ZM13.5935 14.9906C14.2854 14.9906 14.8462 14.4548 14.8462 13.7938C14.8462 13.1328 14.2854 12.5969 13.5935 12.5969C12.9017 12.5969 12.3408 13.1328 12.3408 13.7938C12.3408 14.4548 12.9017 14.9906 13.5935 14.9906ZM13.5935 19.7781C14.2854 19.7781 14.8462 19.2422 14.8462 18.5812C14.8462 17.9202 14.2854 17.3843 13.5935 17.3843C12.9017 17.3843 12.3408 17.9202 12.3408 18.5812C12.3408 19.2422 12.9017 19.7781 13.5935 19.7781ZM8.5827 13.7938C8.5827 14.4548 8.02184 14.9906 7.32999 14.9906C6.63815 14.9906 6.07729 14.4548 6.07729 13.7938C6.07729 13.1328 6.63815 12.5969 7.32999 12.5969C8.02184 12.5969 8.5827 13.1328 8.5827 13.7938ZM8.5827 18.5812C8.5827 19.2422 8.02184 19.7781 7.32999 19.7781C6.63815 19.7781 6.07729 19.2422 6.07729 18.5812C6.07729 17.9202 6.63815 17.3843 7.32999 17.3843C8.02184 17.3843 8.5827 17.9202 8.5827 18.5812Z" fill="#7D7D7D"/>
<path fill-rule="evenodd" clip-rule="evenodd" d="M21.1097 13.7938C21.1097 14.4548 20.5489 14.9906 19.857 14.9906C19.1652 14.9906 18.6043 14.4548 18.6043 13.7938C18.6043 13.1328 19.1652 12.5969 19.857 12.5969C20.5489 12.5969 21.1097 13.1328 21.1097 13.7938ZM21.1097 18.5812C21.1097 19.2422 20.5489 19.7781 19.857 19.7781C19.1652 19.7781 18.6043 19.2422 18.6043 18.5812C18.6043 17.9202 19.1652 17.3843 19.857 17.3843C20.5489 17.3843 21.1097 17.9202 21.1097 18.5812ZM13.5935 14.9906C14.2854 14.9906 14.8462 14.4548 14.8462 13.7938C14.8462 13.1328 14.2854 12.5969 13.5935 12.5969C12.9017 12.5969 12.3408 13.1328 12.3408 13.7938C12.3408 14.4548 12.9017 14.9906 13.5935 14.9906ZM13.5935 19.7781C14.2854 19.7781 14.8462 19.2422 14.8462 18.5812C14.8462 17.9202 14.2854 17.3843 13.5935 17.3843C12.9017 17.3843 12.3408 17.9202 12.3408 18.5812C12.3408 19.2422 12.9017 19.7781 13.5935 19.7781ZM8.5827 13.7938C8.5827 14.4548 8.02184 14.9906 7.32999 14.9906C6.63815 14.9906 6.07729 14.4548 6.07729 13.7938C6.07729 13.1328 6.63815 12.5969 7.32999 12.5969C8.02184 12.5969 8.5827 13.1328 8.5827 13.7938ZM8.5827 18.5812C8.5827 19.2422 8.02184 19.7781 7.32999 19.7781C6.63815 19.7781 6.07729 19.2422 6.07729 18.5812C6.07729 17.9202 6.63815 17.3843 7.32999 17.3843C8.02184 17.3843 8.5827 17.9202 8.5827 18.5812Z" fill="#7D7D7D"/>
<path fill-rule="evenodd" clip-rule="evenodd" d="M11.0173 2.12447C10.0124 2.12447 8.69159 2.16491 7.86231 2.18015C7.86231 2.18015 7.96807 1.69646 7.86231 1.41843C7.58407 0.687005 6.16386 0.701838 5.85844 1.42233C5.72887 1.72801 5.85844 2.27247 5.85844 2.27247C5.53281 2.29619 5.75648 2.27027 5.46469 2.30775C3.996 2.49641 2.80724 2.89391 1.86977 3.78959C0.932291 4.68527 0.516247 5.82102 0.318786 7.22424C0.126918 8.58771 0.126934 10.3299 0.126954 12.5294V15.0582C0.126934 17.2577 0.126918 18.9999 0.318786 20.3633C0.516247 21.7666 0.932291 22.9023 1.86977 23.798C2.80724 24.6937 3.996 25.0912 5.46469 25.2798C6.89178 25.4631 8.71529 25.4631 11.0174 25.4631H16.1696C18.4718 25.4631 20.2952 25.4631 21.7223 25.2798C23.191 25.0912 24.3798 24.6937 25.3172 23.798C26.2547 22.9023 26.6708 21.7666 26.8682 20.3633C27.0601 18.9999 27.0601 17.2577 27.0601 15.0582V12.5294C27.0601 10.3299 27.0601 8.5877 26.8682 7.22424C26.6708 5.82102 26.2547 4.68527 25.3172 3.78959C24.3798 2.89391 23.191 2.49641 21.7223 2.30775C21.4305 2.27027 21.6528 2.2859 21.3271 2.26218C21.3271 2.26218 21.4541 1.72383 21.3271 1.42077C21.0241 0.697498 19.595 0.686724 19.3191 1.42077C19.2154 1.69671 19.3191 2.17565 19.3191 2.17565C18.4898 2.16041 17.1744 2.12447 16.1696 2.12447H11.0173ZM5.71507 4.08702C4.45474 4.24892 3.72862 4.55252 3.19846 5.05904C2.6683 5.56556 2.35053 6.25931 2.18108 7.46345C2.15239 7.66738 2.12839 7.88207 2.10833 8.10874H25.0787C25.0586 7.88207 25.0346 7.66738 25.0059 7.46345C24.8365 6.25931 24.5187 5.56556 23.9886 5.05904C23.4584 4.55252 22.7323 4.24892 21.4719 4.08702C20.1846 3.92166 18.4876 3.91975 16.0989 3.91975H11.0881C8.69942 3.91975 7.00243 3.92166 5.71507 4.08702ZM2.00601 12.5969C2.00601 11.5748 2.00641 10.6852 2.0224 9.90402H25.1646C25.1806 10.6852 25.181 11.5748 25.181 12.5969V14.9906C25.181 17.2728 25.179 18.8942 25.0059 20.1241C24.8365 21.3283 24.5187 22.022 23.9886 22.5285C23.4584 23.0351 22.7323 23.3387 21.4719 23.5006C20.1846 23.6659 18.4876 23.6678 16.0989 23.6678H11.0881C8.69942 23.6678 7.00243 23.6659 5.71507 23.5006C4.45474 23.3387 3.72862 23.0351 3.19846 22.5285C2.6683 22.022 2.35053 21.3283 2.18108 20.1241C2.008 18.8942 2.00601 17.2728 2.00601 14.9906V12.5969Z" fill="#7D7D7D"/>
</svg>
