<svg width="22" height="24" viewBox="0 0 22 24" fill="none" xmlns="http://www.w3.org/2000/svg">
<path fill-rule="evenodd" clip-rule="evenodd" d="M5.51836 0.287764C5.57242 0.287786 5.62727 0.28781 5.68295 0.28781H16.3817C16.4373 0.28781 16.4922 0.287786 16.5462 0.287764C17.6901 0.287281 18.4773 0.286949 19.1403 0.509094C20.3924 0.928629 21.3645 1.89892 21.7812 3.12127L20.9796 3.37473L21.7813 3.12127C22.0018 3.76815 22.0015 4.53714 22.0011 5.67898C22.0011 5.73008 22.0011 5.78193 22.0011 5.83454V21.0057C22.0011 22.593 20.0582 23.538 18.7786 22.4105C18.6892 22.3317 18.5629 22.3317 18.4735 22.4105L17.93 22.8894C16.8858 23.8095 15.3038 23.8095 14.2596 22.8894C13.8602 22.5375 13.2669 22.5375 12.8675 22.8894C11.8233 23.8095 10.2413 23.8095 9.19707 22.8894C8.79772 22.5375 8.20439 22.5375 7.80503 22.8894C6.76082 23.8095 5.17878 23.8095 4.13457 22.8894L3.59109 22.4105C3.50168 22.3317 3.37542 22.3317 3.28601 22.4105C2.00641 23.538 0.0635524 22.593 0.0635524 21.0057V5.83454C0.0635524 5.78193 0.0635329 5.73008 0.0635136 5.67898C0.0630842 4.53715 0.062795 3.76815 0.283354 3.12127C0.700122 1.89892 1.67225 0.928629 2.92433 0.509094C3.58732 0.286949 4.37451 0.287281 5.51836 0.287764ZM5.68295 1.91281C4.30923 1.91281 3.83605 1.92417 3.4789 2.04384C2.7371 2.29239 2.14381 2.87394 1.88665 3.62818C1.76168 3.9947 1.75105 4.47801 1.75105 5.83454V21.0057C1.75105 21.1347 1.81846 21.2135 1.90304 21.2512C1.9471 21.2708 1.99019 21.2759 2.0261 21.2712C2.05776 21.2672 2.09872 21.254 2.14681 21.2116C2.88107 20.5646 3.99603 20.5646 4.7303 21.2116L5.27378 21.6905C5.67314 22.0425 6.26646 22.0425 6.66582 21.6905C7.71003 20.7704 9.29207 20.7704 10.3363 21.6905C10.7356 22.0425 11.329 22.0425 11.7283 21.6905C12.7725 20.7704 14.3546 20.7704 15.3988 21.6905C15.7981 22.0425 16.3915 22.0425 16.7908 21.6905L17.3343 21.2116C18.0686 20.5646 19.1835 20.5646 19.9178 21.2116C19.9659 21.254 20.0068 21.2672 20.0385 21.2712C20.0744 21.2759 20.1175 21.2708 20.1616 21.2512C20.2461 21.2135 20.3136 21.1347 20.3136 21.0057V5.83454C20.3136 4.47802 20.3029 3.9947 20.178 3.62818C19.9208 2.87394 19.3275 2.29239 18.5857 2.04384C18.2286 1.92417 17.7554 1.91281 16.3817 1.91281H5.68295ZM14.4068 6.99424C14.7544 7.2931 14.7845 7.80672 14.4742 8.14145L10.4563 12.4748C10.2962 12.6474 10.0673 12.7461 9.82695 12.7461C9.58659 12.7461 9.35764 12.6474 9.19756 12.4748L7.59042 10.7414C7.28006 10.4067 7.31025 9.8931 7.65785 9.59424C8.00545 9.29537 8.53883 9.32445 8.84919 9.65917L9.82695 10.7137L13.2154 7.05917C13.5258 6.72445 14.0592 6.69537 14.4068 6.99424ZM5.12605 15.7253C5.12605 15.2766 5.50381 14.9128 5.9698 14.9128H16.0948C16.5608 14.9128 16.9386 15.2766 16.9386 15.7253C16.9386 16.174 16.5608 16.5378 16.0948 16.5378H5.9698C5.50381 16.5378 5.12605 16.174 5.12605 15.7253Z" fill="#7D7D7D"/>
</svg>
