<svg width="22" height="24" viewBox="0 0 22 24" fill="none" xmlns="http://www.w3.org/2000/svg">
<g filter="url(#filter0_i_32_3414)">
<path fill-rule="evenodd" clip-rule="evenodd" d="M5.28411 0.28772H16.8419C18.2503 0.28772 18.9545 0.28772 19.5224 0.477703C20.5994 0.837965 21.445 1.67478 21.809 2.74065C22.001 3.30273 22.001 3.99966 22.001 5.39352V21.7554C22.001 22.7581 20.8039 23.2901 20.0466 22.624C19.6017 22.2326 18.9313 22.2326 18.4864 22.624L17.8992 23.1404C17.1195 23.8264 15.9445 23.8264 15.1647 23.1404C14.385 22.4545 13.21 22.4545 12.4302 23.1404C11.6505 23.8264 10.4755 23.8264 9.69574 23.1404C8.916 22.4545 7.74098 22.4545 6.96124 23.1404C6.1815 23.8264 5.00649 23.8264 4.22675 23.1404L3.63962 22.624C3.19472 22.2326 2.52428 22.2326 2.07937 22.624C1.3221 23.2901 0.125 22.7581 0.125 21.7554V5.39352C0.125 3.99966 0.125 3.30273 0.316967 2.74065C0.680989 1.67478 1.52654 0.837965 2.60353 0.477703C3.17148 0.28772 3.87569 0.28772 5.28411 0.28772ZM14.7812 7.88149C15.1165 7.5205 15.0839 6.96656 14.7084 6.64424C14.3329 6.32192 13.7567 6.35328 13.4214 6.71428L9.76085 10.6556L8.70458 9.51834C8.3693 9.15734 7.7931 9.12599 7.41759 9.44831C7.04208 9.77062 7.00946 10.3246 7.34474 10.6856L9.08092 12.5549C9.25386 12.7411 9.50119 12.8476 9.76085 12.8476C10.0205 12.8476 10.2678 12.7411 10.4408 12.5549L14.7812 7.88149ZM5.59399 15.1843C5.09059 15.1843 4.6825 15.5766 4.6825 16.0606C4.6825 16.5445 5.09059 16.9368 5.59399 16.9368H16.532C17.0354 16.9368 17.4435 16.5445 17.4435 16.0606C17.4435 15.5766 17.0354 15.1843 16.532 15.1843H5.59399Z" fill="#FFC91C"/>
</g>
<defs>
<filter id="filter0_i_32_3414" x="0.125" y="0.28772" width="21.876" height="25.3672" filterUnits="userSpaceOnUse" color-interpolation-filters="sRGB">
<feFlood flood-opacity="0" result="BackgroundImageFix"/>
<feBlend mode="normal" in="SourceGraphic" in2="BackgroundImageFix" result="shape"/>
<feColorMatrix in="SourceAlpha" type="matrix" values="0 0 0 0 0 0 0 0 0 0 0 0 0 0 0 0 0 0 127 0" result="hardAlpha"/>
<feOffset dy="2"/>
<feGaussianBlur stdDeviation="2"/>
<feComposite in2="hardAlpha" operator="arithmetic" k2="-1" k3="1"/>
<feColorMatrix type="matrix" values="0 0 0 0 0 0 0 0 0 0 0 0 0 0 0 0 0 0 0.25 0"/>
<feBlend mode="normal" in2="shape" result="effect1_innerShadow_32_3414"/>
</filter>
</defs>
</svg>
