<svg width="13" height="13" viewBox="0 0 13 13" fill="none" xmlns="http://www.w3.org/2000/svg">
<path d="M6.84835 7.22088V5.04027C6.90714 5.03815 6.96045 5.03446 7.01358 5.03428C7.36338 5.03305 7.71317 5.03428 8.06297 5.03147C8.26887 5.03131 8.473 4.99111 8.66512 4.91283C9.09737 4.73524 9.32923 4.39694 9.35105 3.90957C9.35881 3.74003 9.34764 3.57013 9.31774 3.40336C9.25461 3.05855 9.05739 2.81407 8.76006 2.66041C8.54452 2.54975 8.30778 2.49283 8.06813 2.49408C7.04651 2.49056 6.02488 2.48897 5.00326 2.48933H4.8097C4.77073 2.35573 4.75973 0.338287 4.79621 0.104895C4.84185 0.101727 4.89016 0.0952148 4.93829 0.0952148H8.56951C9.2128 0.0952148 9.84143 0.190789 10.4409 0.450583C10.9218 0.658981 11.3374 0.963833 11.664 1.39524C11.9907 1.82664 12.1602 2.31736 12.2179 2.86054C12.2678 3.3333 12.2419 3.80009 12.1043 4.25226C11.8544 5.07001 11.3214 5.61107 10.5842 5.94197C10.5132 5.97366 10.4406 6.00129 10.3331 6.04547C10.4044 6.07328 10.4454 6.09176 10.4879 6.10567C11.5294 6.44378 12.1826 7.18743 12.4218 8.29455C12.637 9.29007 12.4779 10.2342 11.8496 11.0456C11.4088 11.6147 10.8229 11.948 10.1586 12.1369C9.72938 12.2585 9.28702 12.3205 8.84268 12.3213C8.22088 12.3242 7.59907 12.3229 6.9771 12.3229C6.93929 12.3229 6.90131 12.318 6.85334 12.3145V9.9172H7.0344C7.41751 9.9172 7.80062 9.92336 8.18373 9.91368C8.36078 9.91086 8.53709 9.88886 8.70993 9.8482C9.40119 9.67712 9.69435 9.14803 9.63405 8.43888C9.56293 7.60141 8.94679 7.28442 8.42126 7.24781C7.96769 7.21612 7.51146 7.22809 7.05656 7.22105C6.99176 7.22 6.92663 7.22088 6.84835 7.22088Z" fill="black"/>
<path d="M4.32438 9.81834H5.71657L6.60955 12.33C6.38985 12.4418 6.33471 12.2431 6.22044 12.1042L6.25909 12.3467H4.94569L4.8734 12.1038L4.85258 12.1014C4.83913 12.1776 4.82564 12.254 4.8121 12.3302C4.6905 12.3643 3.41292 12.3774 3.07745 12.3467C3.04646 12.2688 3.01315 12.1855 2.98 12.1021L2.96035 12.1053V12.3476H1.64761C1.62879 12.2719 1.60997 12.1957 1.58315 12.0877C1.53318 12.1908 1.49587 12.2661 1.45556 12.3482H0.911377C0.932698 12.2975 0.946856 12.2552 0.967344 12.2168C1.12592 11.921 1.28216 11.6237 1.44673 11.3315C1.53611 11.1696 1.60605 10.9966 1.65494 10.8163C1.73273 10.5412 1.81418 10.2675 1.89497 9.99347C1.91163 9.93855 1.93128 9.88487 1.95327 9.81974H3.18871V0.141384C3.46755 0.141384 3.7274 0.130999 3.98592 0.14508C4.14799 0.153704 4.28974 0.346261 4.31589 0.560116C4.32397 0.64784 4.3267 0.736039 4.32405 0.824133V9.56857L4.32438 9.81834Z" fill="black"/>
</svg>
