<svg width="340" height="192" viewBox="0 0 340 192" fill="none" xmlns="http://www.w3.org/2000/svg">
<g clip-path="url(#clip0_1701_6743)">
<path d="M79.1218 6.28748H10.8698C7.87418 6.28748 5.44577 8.77816 5.44577 11.8506V40.5933C5.44577 43.6657 7.87418 46.1564 10.8698 46.1564H79.1218C82.1174 46.1564 84.5458 43.6657 84.5458 40.5933V11.8506C84.5458 8.77816 82.1174 6.28748 79.1218 6.28748Z" fill="white"/>
<path d="M35.9478 16.5372V36.421H33.498V19.6746L28.5587 21.5218V19.2536L35.5638 16.5372H35.9478Z" fill="black"/>
<path d="M162.742 6.28748H94.4898C91.4939 6.28748 89.0658 8.77816 89.0658 11.8506V40.5933C89.0658 43.6657 91.4939 46.1564 94.4898 46.1564H162.742C165.738 46.1564 168.166 43.6657 168.166 40.5933V11.8506C168.166 8.77816 165.738 6.28748 162.742 6.28748Z" fill="white"/>
<path d="M124.15 34.3565V36.421H111.53V34.6147L117.846 27.4027C118.623 26.5153 119.223 25.7639 119.647 25.1481C120.08 24.5234 120.38 23.9665 120.548 23.4775C120.725 22.9795 120.812 22.4725 120.812 21.9564C120.812 21.3045 120.68 20.7159 120.416 20.1907C120.16 19.6565 119.78 19.231 119.277 18.9141C118.773 18.5972 118.164 18.4387 117.449 18.4387C116.593 18.4387 115.878 18.6107 115.304 18.9548C114.739 19.2898 114.315 19.7606 114.032 20.3673C113.75 20.9739 113.609 21.6712 113.609 22.4589H111.159C111.159 21.3452 111.397 20.3266 111.874 19.403C112.351 18.4794 113.057 17.746 113.993 17.2028C114.928 16.6505 116.081 16.3743 117.449 16.3743C118.667 16.3743 119.709 16.5961 120.574 17.0398C121.44 17.4744 122.102 18.0901 122.561 18.8869C123.028 19.6747 123.262 20.5982 123.262 21.6576C123.262 22.237 123.166 22.8256 122.971 23.4232C122.786 24.0118 122.526 24.6003 122.19 25.1888C121.863 25.7774 121.479 26.3569 121.038 26.9273C120.605 27.4978 120.142 28.0591 119.647 28.6114L114.483 34.3565H124.15Z" fill="black"/>
<path d="M139.889 23.048L137.123 30.8579H135.992L139.177 22.2887H139.906L139.889 23.048ZM142.207 30.8579L139.436 23.048L139.419 22.2887H140.147L143.344 30.8579H142.207ZM142.064 27.6856V28.6155H137.37V27.6856H142.064ZM147.441 26.8499H145.323L145.312 25.9377H147.234C147.551 25.9377 147.829 25.8827 148.066 25.7729C148.303 25.663 148.487 25.5061 148.617 25.302C148.751 25.0941 148.817 24.8469 148.817 24.5605C148.817 24.2466 148.759 23.9915 148.639 23.7954C148.525 23.5953 148.347 23.4501 148.106 23.3599C147.869 23.2657 147.566 23.2186 147.199 23.2186H145.569V30.8579H144.462V22.2887H147.199C147.628 22.2887 148.01 22.3338 148.347 22.424C148.684 22.5104 148.968 22.6477 149.202 22.836C149.439 23.0204 149.619 23.2558 149.741 23.5423C149.864 23.8287 149.925 24.1721 149.925 24.5722C149.925 24.9254 149.837 25.2452 149.661 25.5316C149.486 25.8141 149.241 26.0455 148.927 26.2261C148.617 26.4066 148.253 26.5223 147.837 26.5733L147.441 26.8499ZM147.389 30.8579H144.887L145.512 29.9339H147.389C147.741 29.9339 148.039 29.8711 148.284 29.7456C148.533 29.62 148.722 29.4434 148.852 29.2159C148.982 28.9843 149.047 28.7117 149.047 28.3978C149.047 28.08 148.992 27.8053 148.881 27.5738C148.77 27.3423 148.596 27.1638 148.358 27.0383C148.121 26.9127 147.815 26.8499 147.441 26.8499H145.862L145.874 25.9377H148.032L148.267 26.2672C148.668 26.3026 149.009 26.4203 149.288 26.6204C149.568 26.8166 149.779 27.0677 149.925 27.3737C150.074 27.6798 150.149 28.0172 150.149 28.386C150.149 28.9196 150.034 29.3709 149.805 29.7396C149.579 30.1046 149.26 30.3832 148.846 30.5754C148.433 30.7637 147.947 30.8579 147.389 30.8579ZM156.828 28.1329H157.93C157.873 28.6744 157.722 29.1589 157.477 29.5866C157.232 30.0144 156.886 30.3537 156.438 30.6049C155.991 30.8521 155.432 30.9757 154.762 30.9757C154.273 30.9757 153.827 30.8815 153.425 30.6931C153.027 30.5047 152.685 30.238 152.398 29.8927C152.112 29.5435 151.889 29.1256 151.733 28.6391C151.58 28.1487 151.503 27.6032 151.503 27.003V26.1496C151.503 25.5492 151.58 25.0058 151.733 24.5193C151.889 24.0288 152.113 23.609 152.404 23.2598C152.698 22.9105 153.053 22.6418 153.466 22.4534C153.879 22.2651 154.344 22.171 154.86 22.171C155.491 22.171 156.025 22.2926 156.461 22.5359C156.897 22.7792 157.236 23.1166 157.477 23.5482C157.722 23.9759 157.873 24.4722 157.93 25.0372H156.828C156.774 24.637 156.675 24.2936 156.53 24.0072C156.385 23.7169 156.178 23.4933 155.91 23.3363C155.643 23.1793 155.292 23.1009 154.86 23.1009C154.489 23.1009 154.162 23.1735 153.879 23.3187C153.6 23.4638 153.365 23.6698 153.173 23.9367C152.986 24.2034 152.844 24.5232 152.748 24.8959C152.653 25.2687 152.605 25.6826 152.605 26.1378V27.003C152.605 27.4228 152.647 27.8171 152.731 28.1859C152.819 28.5548 152.951 28.8785 153.127 29.157C153.303 29.4356 153.526 29.6553 153.799 29.8162C154.07 29.9731 154.392 30.0516 154.762 30.0516C155.233 30.0516 155.608 29.9751 155.887 29.8221C156.166 29.6691 156.377 29.4493 156.519 29.1629C156.664 28.8765 156.767 28.5332 156.828 28.1329Z" fill="#666666"/>
<path d="M246.362 6.28748H178.11C175.114 6.28748 172.686 8.77816 172.686 11.8506V40.5933C172.686 43.6657 175.114 46.1564 178.11 46.1564H246.362C249.358 46.1564 251.786 43.6657 251.786 40.5933V11.8506C251.786 8.77816 249.358 6.28748 246.362 6.28748Z" fill="white"/>
<path d="M198.712 25.2975H200.46C201.316 25.2975 202.022 25.1527 202.578 24.8629C203.143 24.5641 203.563 24.1611 203.837 23.6541C204.119 23.138 204.261 22.5585 204.261 21.9157C204.261 21.1551 204.137 20.5167 203.89 20.0006C203.642 19.4845 203.272 19.0952 202.777 18.8326C202.283 18.57 201.656 18.4387 200.897 18.4387C200.208 18.4387 199.599 18.579 199.07 18.8598C198.548 19.1313 198.138 19.5208 197.838 20.0277C197.547 20.5348 197.401 21.1324 197.401 21.8205H194.951C194.951 20.8155 195.198 19.901 195.693 19.077C196.187 18.2531 196.88 17.5967 197.772 17.1077C198.672 16.6188 199.714 16.3743 200.897 16.3743C202.062 16.3743 203.082 16.5871 203.956 17.0126C204.83 17.4291 205.51 18.0539 205.995 18.8869C206.481 19.7108 206.723 20.7385 206.723 21.97C206.723 22.468 206.608 23.0022 206.379 23.5726C206.158 24.134 205.81 24.6592 205.333 25.1481C204.865 25.637 204.256 26.04 203.506 26.3569C202.756 26.6647 201.855 26.8187 200.804 26.8187H198.712V25.2975ZM198.712 27.362V25.8544H200.804C202.031 25.8544 203.047 26.0037 203.85 26.3026C204.653 26.6014 205.285 26.9998 205.743 27.4978C206.212 27.9958 206.538 28.5436 206.723 29.1411C206.918 29.7297 207.015 30.3183 207.015 30.9068C207.015 31.8303 206.861 32.6498 206.551 33.3651C206.251 34.0804 205.823 34.6871 205.267 35.1851C204.72 35.6831 204.075 36.0589 203.333 36.3124C202.592 36.5658 201.784 36.6927 200.91 36.6927C200.072 36.6927 199.281 36.5704 198.54 36.326C197.807 36.0815 197.158 35.7283 196.593 35.2666C196.028 34.7958 195.587 34.2208 195.269 33.5416C194.951 32.8535 194.792 32.0703 194.792 31.1921H197.242C197.242 31.8801 197.388 32.4823 197.679 32.9984C197.979 33.5145 198.403 33.9174 198.951 34.2072C199.507 34.4878 200.16 34.6282 200.91 34.6282C201.661 34.6282 202.305 34.4969 202.843 34.2343C203.391 33.9627 203.81 33.5553 204.102 33.0119C204.402 32.4687 204.552 31.7851 204.552 30.9611C204.552 30.1372 204.384 29.4626 204.048 28.9374C203.713 28.4032 203.236 28.0093 202.618 27.7558C202.01 27.4932 201.29 27.362 200.46 27.362H198.712Z" fill="black"/>
<path d="M223.555 30.8579H221.81L221.822 29.9339H223.555C224.151 29.9339 224.649 29.8064 225.046 29.5513C225.444 29.2924 225.743 28.9314 225.942 28.4685C226.145 28.0015 226.246 27.4562 226.246 26.8323V26.3085C226.246 25.818 226.189 25.3825 226.074 25.0019C225.959 24.6174 225.79 24.2936 225.569 24.0308C225.347 23.764 225.075 23.5619 224.754 23.4246C224.436 23.2873 224.071 23.2186 223.658 23.2186H221.776V22.2887H223.658C224.205 22.2887 224.705 22.3829 225.156 22.5712C225.607 22.7556 225.996 23.0244 226.321 23.3775C226.649 23.7268 226.902 24.1505 227.078 24.6488C227.254 25.1431 227.342 25.7003 227.342 26.3203V26.8323C227.342 27.4522 227.254 28.0114 227.078 28.5096C226.902 29.004 226.647 29.4258 226.315 29.775C225.986 30.1242 225.588 30.3929 225.121 30.5813C224.659 30.7658 224.136 30.8579 223.555 30.8579ZM222.401 22.2887V30.8579H221.294V22.2887H222.401ZM234.314 29.9339V30.8579H229.89V29.9339H234.314ZM230.113 22.2887V30.8579H229.006V22.2887H230.113ZM233.728 25.973V26.897H229.89V25.973H233.728ZM234.256 22.2887V23.2186H229.89V22.2887H234.256ZM236.793 22.2887V30.8579H235.686V22.2887H236.793ZM240.293 26.1437V27.0736H236.552V26.1437H240.293ZM240.862 22.2887V23.2186H236.552V22.2887H240.862Z" fill="#666666"/>
<path d="M329.982 6.28748H261.73C258.734 6.28748 256.306 8.77816 256.306 11.8506V41.5205C256.306 44.5929 258.734 47.0836 261.73 47.0836H329.982C332.978 47.0836 335.406 44.5929 335.406 41.5205V11.8506C335.406 8.77816 332.978 6.28748 329.982 6.28748Z" fill="#CCCED5"/>
<path d="M301.28 25.7583H290.432V27.6127H301.28V25.7583Z" fill="#3D3D3F"/>
<path d="M79.1218 52.6467H10.8698C7.87418 52.6467 5.44577 55.1374 5.44577 58.2098V86.9526C5.44577 90.025 7.87418 92.5157 10.8698 92.5157H79.1218C82.1174 92.5157 84.5458 90.025 84.5458 86.9526V58.2098C84.5458 55.1374 82.1174 52.6467 79.1218 52.6467Z" fill="white"/>
<path d="M40.9269 76.1252V78.1895H26.9961V76.7091L35.63 63.0051H37.6296L35.4843 66.971L29.7769 76.1252H40.9269ZM38.2387 63.0051V82.7802H35.7889V63.0051H38.2387Z" fill="black"/>
<path d="M60.8709 72.9502V76.0871C60.7677 76.2441 60.6032 76.4207 60.3774 76.6168C60.1518 76.8091 59.84 76.9779 59.4422 77.123C59.0481 77.2643 58.5393 77.3349 57.9157 77.3349C57.407 77.3349 56.9383 77.2446 56.5098 77.0642C56.0852 76.8798 55.716 76.6129 55.4024 76.2637C55.0925 75.9106 54.8515 75.483 54.6793 74.9807C54.511 74.4745 54.4268 73.9017 54.4268 73.2622V72.5971C54.4268 71.9575 54.4995 71.3867 54.6449 70.8844C54.7941 70.3822 55.0122 69.9565 55.2991 69.6073C55.586 69.2541 55.938 68.9874 56.3549 68.8069C56.7719 68.6224 57.2501 68.5303 57.7895 68.5303C58.4283 68.5303 58.962 68.644 59.3904 68.8716C59.8227 69.0952 60.1594 69.4052 60.4004 69.8015C60.6453 70.1978 60.8021 70.649 60.8709 71.1551H59.7634C59.7137 70.8452 59.6143 70.5627 59.4651 70.3077C59.3197 70.0526 59.1112 69.8485 58.8396 69.6956C58.568 69.5386 58.218 69.4601 57.7895 69.4601C57.4031 69.4601 57.0684 69.5327 56.7853 69.6779C56.5023 69.823 56.2688 70.031 56.0852 70.3018C55.9016 70.5725 55.7639 70.9001 55.6721 71.2847C55.5841 71.6692 55.5401 72.1027 55.5401 72.5853V73.2622C55.5401 73.7565 55.5955 74.198 55.7065 74.5864C55.8213 74.9748 55.9838 75.3063 56.1943 75.581C56.4046 75.8517 56.6552 76.0577 56.9459 76.199C57.2406 76.3402 57.5657 76.4109 57.9214 76.4109C58.3155 76.4109 58.635 76.3775 58.8798 76.3108C59.1246 76.2402 59.3159 76.1578 59.4536 76.0636C59.5913 75.9656 59.6965 75.8733 59.7692 75.787V73.8684H57.8354V72.9502H60.8709ZM68.1643 72.3322V73.2562H63.6426V72.3322H68.1643ZM63.8147 68.6479V77.2172H62.7072V68.6479H63.8147ZM69.1283 68.6479V77.2172H68.0266V68.6479H69.1283ZM72.2844 68.6479V77.2172H71.1769V68.6479H72.2844Z" fill="#666666"/>
<path d="M162.742 52.6467H94.4898C91.4939 52.6467 89.0658 55.1374 89.0658 58.2098V86.9526C89.0658 90.025 91.4939 92.5157 94.4898 92.5157H162.742C165.738 92.5157 168.166 90.025 168.166 86.9526V58.2098C168.166 55.1374 165.738 52.6467 162.742 52.6467Z" fill="white"/>
<path d="M114.616 73.368L112.656 72.8519L113.622 63.0051H123.514V65.3276H115.701L115.118 70.706C115.472 70.4977 115.917 70.3031 116.456 70.122C117.003 69.9408 117.63 69.8503 118.336 69.8503C119.228 69.8503 120.027 70.0088 120.733 70.3257C121.44 70.6335 122.04 71.0772 122.534 71.6567C123.037 72.2362 123.421 72.9334 123.686 73.7483C123.951 74.5632 124.083 75.4732 124.083 76.4782C124.083 77.429 123.956 78.3027 123.7 79.0996C123.452 79.8963 123.077 80.5935 122.573 81.1911C122.071 81.7797 121.435 82.237 120.667 82.5629C119.908 82.8889 119.012 83.0519 117.978 83.0519C117.202 83.0519 116.465 82.9432 115.767 82.7259C115.078 82.4995 114.461 82.16 113.913 81.7073C113.375 81.2454 112.933 80.675 112.589 79.996C112.253 79.3078 112.042 78.5019 111.953 77.5783H114.284C114.39 78.3208 114.602 78.9457 114.92 79.4526C115.238 79.9597 115.652 80.3445 116.165 80.6071C116.686 80.8607 117.29 80.9874 117.978 80.9874C118.562 80.9874 119.078 80.8833 119.528 80.675C119.978 80.4668 120.358 80.168 120.667 79.7786C120.976 79.3893 121.21 78.9185 121.368 78.3662C121.537 77.8138 121.621 77.1936 121.621 76.5054C121.621 75.8807 121.537 75.3012 121.368 74.7669C121.201 74.2327 120.95 73.7664 120.614 73.368C120.287 72.9696 119.886 72.6618 119.409 72.4444C118.932 72.2181 118.385 72.1049 117.767 72.1049C116.946 72.1049 116.323 72.2181 115.9 72.4444C115.485 72.6708 115.057 72.9787 114.616 73.368Z" fill="black"/>
<path d="M141.524 74.7158V68.6479H142.626V74.7158C142.626 75.2808 142.513 75.7576 142.288 76.146C142.062 76.5345 141.75 76.8307 141.352 77.0347C140.958 77.2348 140.505 77.3349 139.992 77.3349C139.479 77.3349 139.024 77.2446 138.627 77.0642C138.229 76.8837 137.917 76.609 137.691 76.2402C137.465 75.8714 137.353 75.4064 137.353 74.8453H138.46C138.46 75.2063 138.525 75.5025 138.655 75.7341C138.785 75.9656 138.965 76.1362 139.194 76.246C139.428 76.3559 139.693 76.4109 139.992 76.4109C140.283 76.4109 140.543 76.3481 140.773 76.2225C141.006 76.0931 141.19 75.9028 141.323 75.6516C141.457 75.3966 141.524 75.0847 141.524 74.7158ZM145.61 68.6479V77.2172H144.503V68.6479H145.61ZM150.654 68.6479L147.182 72.6442L145.231 74.7218L145.048 73.5094L146.517 71.8496L149.323 68.6479H150.654ZM149.587 77.2172L146.493 73.0385L147.153 72.1381L150.907 77.2172H149.587ZM156.949 76.2931V77.2172H152.772V76.2931H156.949ZM152.989 68.6479V77.2172H151.882V68.6479H152.989Z" fill="#666666"/>
<path d="M246.362 52.6467H178.11C175.114 52.6467 172.686 55.1374 172.686 58.2098V86.9526C172.686 90.025 175.114 92.5157 178.11 92.5157H246.362C249.358 92.5157 251.786 90.025 251.786 86.9526V58.2098C251.786 55.1374 249.358 52.6467 246.362 52.6467Z" fill="white"/>
<path d="M204.538 62.978H204.751V65.1104H204.538C203.241 65.1104 202.155 65.3277 201.281 65.7623C200.407 66.1878 199.714 66.7628 199.202 67.4872C198.69 68.2024 198.319 69.0083 198.09 69.9047C197.869 70.8011 197.758 71.7111 197.758 72.6347V75.5412C197.758 76.4194 197.86 77.1982 198.063 77.8772C198.266 78.5473 198.544 79.1132 198.897 79.575C199.251 80.0367 199.648 80.3854 200.089 80.6208C200.54 80.8562 201.007 80.9739 201.493 80.9739C202.058 80.9739 202.561 80.8653 203.002 80.6479C203.443 80.4216 203.815 80.1091 204.115 79.7108C204.423 79.3033 204.658 78.8234 204.817 78.2711C204.976 77.7188 205.055 77.1121 205.055 76.4511C205.055 75.8626 204.985 75.2967 204.843 74.7535C204.702 74.2011 204.486 73.7121 204.194 73.2866C203.903 72.852 203.537 72.5125 203.095 72.268C202.662 72.0145 202.146 71.8877 201.546 71.8877C200.866 71.8877 200.231 72.0597 199.639 72.4038C199.056 72.7388 198.575 73.1824 198.196 73.7348C197.825 74.2781 197.613 74.8711 197.56 75.514L196.262 75.5004C196.386 74.4863 196.616 73.6216 196.951 72.9063C197.295 72.1819 197.718 71.5934 198.222 71.1407C198.734 70.6788 199.303 70.3439 199.931 70.1356C200.566 69.9183 201.237 69.8096 201.943 69.8096C202.906 69.8096 203.735 69.9952 204.432 70.3665C205.13 70.7377 205.703 71.2357 206.154 71.8605C206.605 72.4762 206.936 73.1734 207.147 73.9521C207.368 74.7217 207.478 75.514 207.478 76.3289C207.478 77.2616 207.351 78.1353 207.094 78.9502C206.838 79.7651 206.454 80.4804 205.942 81.0961C205.439 81.7119 204.817 82.1917 204.075 82.5358C203.333 82.8799 202.473 83.0519 201.493 83.0519C200.451 83.0519 199.542 82.8346 198.765 82.3999C197.988 81.9563 197.343 81.3678 196.832 80.6343C196.32 79.9009 195.936 79.086 195.68 78.1896C195.423 77.2932 195.296 76.3833 195.296 75.4597V74.2781C195.296 72.8837 195.432 71.5165 195.706 70.1763C195.98 68.8363 196.452 67.6229 197.123 66.5365C197.803 65.4499 198.743 64.5852 199.943 63.9423C201.144 63.2995 202.676 62.978 204.538 62.978Z" fill="black"/>
<path d="M218.717 68.6479H219.791L222.528 75.634L225.259 68.6479H226.338L222.941 77.2172H222.103L218.717 68.6479ZM218.368 68.6479H219.314L219.469 73.8742V77.2172H218.368V68.6479ZM225.735 68.6479H226.682V77.2172H225.581V73.8742L225.735 68.6479ZM235.055 68.6479V77.2172H233.941L229.735 70.6078V77.2172H228.627V68.6479H229.735L233.958 75.275V68.6479H235.055ZM243.449 72.6618V73.2033C243.449 73.8467 243.371 74.4236 243.214 74.9336C243.058 75.4436 242.832 75.8773 242.537 76.2343C242.242 76.5913 241.889 76.864 241.476 77.0524C241.066 77.2407 240.607 77.3349 240.098 77.3349C239.604 77.3349 239.151 77.2407 238.738 77.0524C238.329 76.864 237.974 76.5913 237.671 76.2343C237.372 75.8773 237.141 75.4436 236.976 74.9336C236.812 74.4236 236.73 73.8467 236.73 73.2033V72.6618C236.73 72.0183 236.81 71.4435 236.971 70.9374C237.136 70.4273 237.367 69.9937 237.665 69.6367C237.964 69.2757 238.317 69.0011 238.727 68.8127C239.14 68.6244 239.594 68.5303 240.087 68.5303C240.595 68.5303 241.054 68.6244 241.464 68.8127C241.877 69.0011 242.231 69.2757 242.525 69.6367C242.824 69.9937 243.051 70.4273 243.209 70.9374C243.369 71.4435 243.449 72.0183 243.449 72.6618ZM242.353 73.2033V72.65C242.353 72.14 242.302 71.6887 242.199 71.2964C242.099 70.9041 241.952 70.5744 241.757 70.3077C241.562 70.0408 241.322 69.8388 241.039 69.7014C240.76 69.5641 240.442 69.4955 240.087 69.4955C239.743 69.4955 239.431 69.5641 239.151 69.7014C238.876 69.8388 238.639 70.0408 238.44 70.3077C238.245 70.5744 238.094 70.9041 237.986 71.2964C237.88 71.6887 237.826 72.14 237.826 72.65V73.2033C237.826 73.7173 237.88 74.1724 237.986 74.5687C238.094 74.961 238.247 75.2926 238.445 75.5633C238.648 75.8302 238.887 76.0322 239.163 76.1695C239.443 76.3069 239.754 76.3756 240.098 76.3756C240.458 76.3756 240.777 76.3069 241.056 76.1695C241.336 76.0322 241.571 75.8302 241.762 75.5633C241.957 75.2926 242.105 74.961 242.204 74.5687C242.304 74.1724 242.353 73.7173 242.353 73.2033Z" fill="#666666"/>
<path d="M329.982 52.6467H261.73C258.734 52.6467 256.306 55.1374 256.306 58.2098V87.8797C256.306 90.9521 258.734 93.4428 261.73 93.4428H329.982C332.978 93.4428 335.406 90.9521 335.406 87.8797V58.2098C335.406 55.1374 332.978 52.6467 329.982 52.6467Z" fill="#CCCED5"/>
<path d="M301.28 70.2632V73.9719H290.432V70.2632H288.624V75.8263H303.088V70.2632H301.28Z" fill="#3D3D3F"/>
<path d="M79.1218 99.0059H10.8698C7.87418 99.0059 5.44577 101.496 5.44577 104.569V133.312C5.44577 136.384 7.87418 138.875 10.8698 138.875H79.1218C82.1174 138.875 84.5458 136.384 84.5458 133.312V104.569C84.5458 101.496 82.1174 99.0059 79.1218 99.0059Z" fill="white"/>
<path d="M40.3574 109.364V110.776L32.3724 129.139H29.7902L37.762 111.428H27.3272V109.364H40.3574Z" fill="black"/>
<path d="M52.7168 120.215H50.4847V119.292H52.7168C53.1491 119.292 53.4992 119.221 53.7669 119.079C54.0348 118.938 54.2299 118.742 54.3523 118.492C54.4785 118.24 54.5417 117.954 54.5417 117.632C54.5417 117.337 54.4785 117.061 54.3523 116.802C54.2299 116.544 54.0348 116.335 53.7669 116.178C53.4992 116.017 53.1491 115.937 52.7168 115.937H50.7429V123.576H49.6354V115.007H52.7168C53.3481 115.007 53.8817 115.118 54.3178 115.343C54.7539 115.566 55.0849 115.876 55.3106 116.273C55.5362 116.665 55.6491 117.114 55.6491 117.62C55.6491 118.17 55.5362 118.638 55.3106 119.027C55.0849 119.415 54.7539 119.712 54.3178 119.916C53.8817 120.116 53.3481 120.215 52.7168 120.215ZM61.3358 122.593L63.4589 124.318L62.7129 125.024L60.6242 123.323L61.3358 122.593ZM63.4302 119.021V119.562C63.4302 120.206 63.3518 120.783 63.1949 121.293C63.0381 121.802 62.8124 122.236 62.5178 122.593C62.2233 122.95 61.8694 123.223 61.4563 123.411C61.0469 123.599 60.5879 123.694 60.0791 123.694C59.5856 123.694 59.1323 123.599 58.7191 123.411C58.3098 123.223 57.954 122.95 57.6518 122.593C57.3534 122.236 57.1219 121.802 56.9574 121.293C56.793 120.783 56.7107 120.206 56.7107 119.562V119.021C56.7107 118.377 56.7911 117.803 56.9517 117.296C57.1162 116.786 57.3477 116.353 57.6461 115.996C57.9444 115.635 58.2983 115.36 58.7076 115.172C59.1208 114.983 59.5741 114.889 60.0676 114.889C60.5764 114.889 61.0373 114.983 61.4505 115.172C61.8637 115.36 62.2175 115.635 62.5121 115.996C62.8067 116.353 63.0324 116.786 63.1892 117.296C63.3499 117.803 63.4302 118.377 63.4302 119.021ZM62.3342 119.562V119.009C62.3342 118.499 62.2826 118.047 62.1793 117.655C62.0798 117.263 61.9326 116.934 61.7374 116.667C61.5423 116.4 61.3051 116.198 61.0259 116.06C60.7466 115.923 60.4271 115.855 60.0676 115.855C59.7271 115.855 59.4173 115.923 59.1379 116.06C58.8626 116.198 58.6254 116.4 58.4264 116.667C58.2275 116.934 58.0745 117.263 57.9674 117.655C57.8602 118.047 57.8067 118.499 57.8067 119.009V119.562C57.8067 120.076 57.8602 120.531 57.9674 120.928C58.0745 121.32 58.2275 121.651 58.4264 121.922C58.6292 122.189 58.8702 122.391 59.1494 122.528C59.4288 122.666 59.7386 122.734 60.0791 122.734C60.4386 122.734 60.7581 122.666 61.0373 122.528C61.3166 122.391 61.5519 122.189 61.7432 121.922C61.9383 121.651 62.0855 121.32 62.185 120.928C62.2845 120.531 62.3342 120.076 62.3342 119.562ZM65.1402 115.007H67.9061C68.5335 115.007 69.0633 115.105 69.4956 115.301C69.9317 115.498 70.2626 115.788 70.4883 116.173C70.7178 116.553 70.8326 117.022 70.8326 117.579C70.8326 117.971 70.7542 118.33 70.5973 118.656C70.4443 118.977 70.2224 119.253 69.9317 119.48C69.6448 119.703 69.3004 119.87 68.8988 119.981L68.5889 120.104H65.9895L65.978 119.179H67.9405C68.3384 119.179 68.6693 119.109 68.9332 118.968C69.1972 118.823 69.3961 118.629 69.53 118.385C69.6639 118.142 69.7308 117.873 69.7308 117.579C69.7308 117.249 69.6677 116.961 69.5415 116.714C69.4153 116.467 69.2163 116.276 68.9447 116.143C68.677 116.006 68.3307 115.937 67.9061 115.937H66.2477V123.576H65.1402V115.007ZM70.0235 123.576L67.9922 119.692L69.1456 119.686L71.2056 123.506V123.576H70.0235ZM76.8348 121.41C76.8348 121.21 76.8043 121.034 76.7431 120.881C76.6857 120.724 76.5823 120.582 76.4332 120.457C76.2878 120.331 76.0851 120.211 75.8249 120.098C75.5686 119.984 75.2434 119.868 74.8494 119.751C74.4363 119.625 74.0633 119.485 73.7304 119.332C73.3976 119.176 73.1126 118.998 72.8754 118.797C72.6383 118.597 72.4566 118.367 72.3303 118.109C72.2041 117.85 72.1409 117.553 72.1409 117.22C72.1409 116.887 72.2079 116.579 72.3418 116.296C72.4757 116.013 72.6669 115.768 72.9156 115.56C73.1681 115.348 73.4684 115.183 73.8165 115.066C74.1646 114.948 74.553 114.889 74.9814 114.889C75.6087 114.889 76.1405 115.013 76.5767 115.26C77.0165 115.503 77.3513 115.823 77.5808 116.219C77.8103 116.612 77.9251 117.031 77.9251 117.479H76.8234C76.8234 117.157 76.7565 116.873 76.6226 116.625C76.4886 116.375 76.2859 116.178 76.0143 116.037C75.7426 115.892 75.3984 115.819 74.9814 115.819C74.5873 115.819 74.2621 115.88 74.0059 116.002C73.7496 116.123 73.5583 116.288 73.4321 116.496C73.3096 116.704 73.2484 116.941 73.2484 117.208C73.2484 117.388 73.2847 117.553 73.3574 117.702C73.434 117.848 73.5506 117.983 73.7074 118.109C73.8682 118.234 74.0709 118.35 74.3158 118.456C74.5644 118.562 74.8609 118.664 75.2052 118.762C75.6795 118.899 76.0889 119.052 76.4332 119.221C76.7774 119.39 77.0606 119.58 77.2824 119.791C77.5081 120 77.6746 120.237 77.7817 120.504C77.8926 120.767 77.9481 121.065 77.9481 121.398C77.9481 121.748 77.8792 122.064 77.7415 122.346C77.6038 122.629 77.4068 122.87 77.1504 123.07C76.8941 123.27 76.5861 123.425 76.2266 123.535C75.8708 123.641 75.473 123.694 75.0331 123.694C74.6466 123.694 74.266 123.639 73.8911 123.529C73.52 123.42 73.1815 123.254 72.8754 123.035C72.5732 122.815 72.3303 122.544 72.1467 122.223C71.9669 121.897 71.8769 121.521 71.8769 121.092H72.9787C72.9787 121.387 73.0342 121.64 73.1452 121.852C73.2561 122.059 73.4071 122.233 73.5984 122.37C73.7936 122.507 74.0135 122.609 74.2583 122.676C74.507 122.739 74.7652 122.77 75.0331 122.77C75.4194 122.77 75.7465 122.715 76.0143 122.605C76.282 122.495 76.4848 122.338 76.6226 122.134C76.764 121.93 76.8348 121.689 76.8348 121.41Z" fill="#666666"/>
<path d="M162.742 99.0059H94.4898C91.4939 99.0059 89.0658 101.496 89.0658 104.569V133.312C89.0658 136.384 91.4939 138.875 94.4898 138.875H162.742C165.738 138.875 168.166 136.384 168.166 133.312V104.569C168.166 101.496 165.738 99.0059 162.742 99.0059Z" fill="white"/>
<path d="M123.673 123.789C123.673 124.992 123.399 126.016 122.852 126.858C122.313 127.691 121.581 128.324 120.653 128.759C119.736 129.194 118.698 129.411 117.542 129.411C116.386 129.411 115.343 129.194 114.417 128.759C113.49 128.324 112.757 127.691 112.218 126.858C111.68 126.016 111.411 124.992 111.411 123.789C111.411 123 111.556 122.281 111.847 121.628C112.148 120.968 112.567 120.392 113.106 119.904C113.653 119.415 114.297 119.039 115.039 118.776C115.79 118.505 116.615 118.369 117.516 118.369C118.698 118.369 119.753 118.605 120.68 119.076C121.607 119.537 122.336 120.175 122.865 120.99C123.403 121.805 123.673 122.738 123.673 123.789ZM121.21 123.734C121.21 123 121.056 122.353 120.746 121.791C120.437 121.221 120.005 120.777 119.448 120.461C118.892 120.144 118.248 119.985 117.516 119.985C116.765 119.985 116.116 120.144 115.568 120.461C115.03 120.777 114.611 121.221 114.311 121.791C114.011 122.353 113.861 123 113.861 123.734C113.861 124.494 114.006 125.146 114.297 125.689C114.597 126.223 115.021 126.636 115.568 126.925C116.125 127.206 116.782 127.346 117.542 127.346C118.301 127.346 118.954 127.206 119.502 126.925C120.049 126.636 120.468 126.223 120.76 125.689C121.06 125.146 121.21 124.494 121.21 123.734ZM123.223 114.512C123.223 115.472 122.976 116.336 122.481 117.105C121.987 117.876 121.311 118.482 120.455 118.925C119.598 119.37 118.627 119.591 117.542 119.591C116.438 119.591 115.454 119.37 114.588 118.925C113.732 118.482 113.062 117.876 112.576 117.105C112.091 116.336 111.847 115.472 111.847 114.512C111.847 113.361 112.091 112.384 112.576 111.578C113.071 110.772 113.746 110.156 114.602 109.731C115.458 109.305 116.433 109.093 117.528 109.093C118.632 109.093 119.612 109.305 120.468 109.731C121.325 110.156 121.996 110.772 122.481 111.578C122.976 112.384 123.223 113.361 123.223 114.512ZM120.773 114.553C120.773 113.892 120.636 113.308 120.362 112.8C120.088 112.293 119.709 111.895 119.223 111.605C118.738 111.307 118.173 111.157 117.528 111.157C116.884 111.157 116.319 111.297 115.833 111.578C115.357 111.85 114.982 112.239 114.708 112.746C114.443 113.253 114.311 113.856 114.311 114.553C114.311 115.232 114.443 115.825 114.708 116.332C114.982 116.838 115.361 117.232 115.847 117.513C116.332 117.794 116.897 117.934 117.542 117.934C118.186 117.934 118.747 117.794 119.223 117.513C119.709 117.232 120.088 116.838 120.362 116.332C120.636 115.825 120.773 115.232 120.773 114.553Z" fill="black"/>
<path d="M140.147 115.007V123.576H139.057V115.007H140.147ZM142.833 115.007V115.937H136.377V115.007H142.833ZM148.852 115.007H149.954V120.804C149.954 121.447 149.815 121.983 149.535 122.411C149.256 122.838 148.884 123.16 148.422 123.376C147.962 123.588 147.463 123.694 146.924 123.694C146.358 123.694 145.845 123.588 145.386 123.376C144.931 123.16 144.57 122.838 144.302 122.411C144.038 121.983 143.906 121.447 143.906 120.804V115.007H145.002V120.804C145.002 121.252 145.082 121.62 145.243 121.911C145.403 122.201 145.627 122.417 145.914 122.558C146.205 122.699 146.541 122.77 146.924 122.77C147.311 122.77 147.647 122.699 147.934 122.558C148.224 122.417 148.45 122.201 148.611 121.911C148.771 121.62 148.852 121.252 148.852 120.804V115.007ZM154.39 122.275L156.851 115.007H158.051L154.957 123.576H154.102L154.39 122.275ZM152.088 115.007L154.527 122.275L154.832 123.576H153.977L150.889 115.007H152.088Z" fill="#666666"/>
<path d="M246.362 99.0059H178.11C175.114 99.0059 172.686 101.496 172.686 104.569V133.312C172.686 136.384 175.114 138.875 178.11 138.875H246.362C249.358 138.875 251.786 136.384 251.786 133.312V104.569C251.786 101.496 249.358 99.0059 246.362 99.0059Z" fill="white"/>
<path d="M197.573 127.034H197.825C199.237 127.034 200.385 126.831 201.268 126.423C202.151 126.016 202.831 125.468 203.307 124.78C203.783 124.092 204.111 123.318 204.287 122.457C204.463 121.587 204.552 120.696 204.552 119.781V116.753C204.552 115.856 204.451 115.059 204.247 114.362C204.053 113.666 203.78 113.081 203.426 112.61C203.082 112.139 202.689 111.781 202.247 111.538C201.806 111.293 201.338 111.17 200.844 111.17C200.279 111.17 199.771 111.288 199.321 111.524C198.88 111.75 198.505 112.072 198.196 112.488C197.896 112.904 197.666 113.394 197.507 113.955C197.348 114.517 197.268 115.128 197.268 115.789C197.268 116.377 197.339 116.948 197.481 117.499C197.622 118.052 197.838 118.55 198.13 118.994C198.421 119.437 198.782 119.791 199.215 120.053C199.657 120.307 200.173 120.433 200.765 120.433C201.312 120.433 201.824 120.325 202.301 120.108C202.786 119.881 203.215 119.578 203.585 119.197C203.965 118.808 204.265 118.369 204.486 117.88C204.715 117.391 204.847 116.879 204.883 116.345H206.048C206.048 117.097 205.902 117.839 205.611 118.573C205.328 119.297 204.931 119.958 204.42 120.555C203.907 121.153 203.307 121.633 202.618 121.995C201.93 122.349 201.18 122.525 200.367 122.525C199.413 122.525 198.588 122.335 197.891 121.955C197.193 121.574 196.62 121.067 196.17 120.433C195.728 119.8 195.397 119.093 195.176 118.314C194.965 117.527 194.858 116.73 194.858 115.924C194.858 114.982 194.987 114.099 195.242 113.276C195.498 112.452 195.878 111.728 196.381 111.103C196.885 110.469 197.507 109.975 198.248 109.622C198.999 109.269 199.864 109.093 200.844 109.093C201.947 109.093 202.888 109.319 203.665 109.771C204.441 110.225 205.072 110.831 205.558 111.591C206.052 112.353 206.415 113.207 206.644 114.159C206.873 115.109 206.988 116.087 206.988 117.092V118.002C206.988 119.026 206.922 120.067 206.79 121.126C206.666 122.176 206.423 123.181 206.061 124.141C205.708 125.101 205.192 125.961 204.512 126.722C203.832 127.473 202.945 128.071 201.851 128.514C200.765 128.949 199.422 129.166 197.825 129.166H197.573V127.034Z" fill="black"/>
<path d="M217.983 120.987L219.641 115.007H220.445L219.979 117.332L218.195 123.576H217.398L217.983 120.987ZM216.267 115.007L217.587 120.869L217.983 123.576H217.191L215.166 115.007H216.267ZM222.591 120.863L223.882 115.007H224.989L222.97 123.576H222.178L222.591 120.863ZM220.565 115.007L222.178 120.987L222.763 123.576H221.966L220.243 117.332L219.773 115.007H220.565ZM226.935 115.007L228.943 118.291L230.951 115.007H232.242L229.603 119.25L232.305 123.576H231.003L228.943 120.227L226.883 123.576H225.581L228.283 119.25L225.644 115.007H226.935ZM233.97 115.007L236.138 119.309L238.313 115.007H239.57L236.69 120.375V123.576H235.582V120.375L232.701 115.007H233.97ZM246.25 122.652V123.576H240.592V122.652H246.25ZM246.066 115.831L240.856 123.576H240.173V122.729L245.377 115.007H246.066V115.831ZM245.595 115.007V115.937H240.247V115.007H245.595Z" fill="#666666"/>
<path d="M329.982 99.0059H261.73C258.734 99.0059 256.306 101.496 256.306 104.569V134.239C256.306 137.312 258.734 139.802 261.73 139.802H329.982C332.978 139.802 335.406 137.312 335.406 134.239V104.569C335.406 101.496 332.978 99.0059 329.982 99.0059Z" fill="#CCCED5"/>
<path d="M304.896 111.059H291.336C290.712 111.059 290.224 111.384 289.898 111.875L285.008 119.404L289.898 126.923C290.224 127.415 290.712 127.749 291.336 127.749H304.896C305.89 127.749 306.704 126.914 306.704 125.894V112.914C306.704 111.894 305.89 111.059 304.896 111.059ZM304.896 125.894H291.399L287.177 119.404L291.39 112.914H304.896V125.894ZM294.418 124.04L297.664 120.711L300.909 124.04L302.184 122.732L298.938 119.404L302.184 116.075L300.909 114.768L297.664 118.097L294.418 114.768L293.144 116.075L296.389 119.404L293.144 122.732L294.418 124.04Z" fill="#3D3D3F"/>
<path d="M79.1218 145.365H10.8698C7.87418 145.365 5.44577 147.856 5.44577 150.928V180.598C5.44577 183.671 7.87418 186.161 10.8698 186.161H79.1218C82.1174 186.161 84.5458 183.671 84.5458 180.598V150.928C84.5458 147.856 82.1174 145.365 79.1218 145.365Z" fill="white"/>
<path d="M35.4852 166.484L37.0823 164.235L34.6828 163.502L35.0562 162.279L37.4557 163.184L37.3842 160.38H38.5918L38.5124 163.233L40.8801 162.328L41.2456 163.575L38.8064 164.316L40.3716 166.524L39.3864 167.283L37.9165 164.935L36.4784 167.225L35.4852 166.484ZM47.721 172.253L49.9696 160.388H51.1137L48.8572 172.253H47.721ZM50.9548 172.253L53.2112 160.388H54.3474L52.0909 172.253H50.9548ZM55.3167 164.911H47.0536V163.778H55.3167V164.911ZM54.7208 168.912H46.4498V167.788H54.7208V168.912Z" fill="black"/>
<path d="M162.742 145.365H94.4898C91.4939 145.365 89.0658 147.856 89.0658 150.928V179.671C89.0658 182.744 91.4939 185.234 94.4898 185.234H162.742C165.738 185.234 168.166 182.744 168.166 179.671V150.928C168.166 147.856 165.738 145.365 162.742 145.365Z" fill="white"/>
<path d="M123.62 164.036V167.051C123.62 168.672 123.478 170.038 123.196 171.152C122.913 172.266 122.507 173.162 121.978 173.842C121.448 174.52 120.808 175.015 120.058 175.322C119.316 175.621 118.477 175.77 117.542 175.77C116.801 175.77 116.116 175.675 115.489 175.485C114.862 175.295 114.297 174.991 113.794 174.575C113.3 174.15 112.876 173.597 112.523 172.918C112.17 172.239 111.901 171.415 111.716 170.446C111.53 169.477 111.437 168.345 111.437 167.051V164.036C111.437 162.415 111.578 161.057 111.861 159.961C112.152 158.866 112.563 157.987 113.092 157.326C113.622 156.656 114.258 156.176 115 155.887C115.75 155.597 116.588 155.452 117.516 155.452C118.266 155.452 118.954 155.546 119.581 155.737C120.217 155.918 120.782 156.212 121.276 156.62C121.771 157.018 122.19 157.553 122.534 158.222C122.887 158.883 123.157 159.694 123.342 160.653C123.527 161.613 123.62 162.74 123.62 164.036ZM121.157 167.458V163.615C121.157 162.728 121.104 161.949 120.998 161.278C120.901 160.6 120.755 160.02 120.561 159.54C120.367 159.061 120.12 158.671 119.82 158.372C119.528 158.073 119.188 157.856 118.8 157.72C118.42 157.575 117.992 157.503 117.516 157.503C116.932 157.503 116.416 157.616 115.966 157.842C115.516 158.059 115.136 158.408 114.827 158.888C114.527 159.368 114.297 159.997 114.138 160.776C113.98 161.555 113.9 162.5 113.9 163.615V167.458C113.9 168.345 113.948 169.129 114.046 169.808C114.152 170.487 114.306 171.075 114.51 171.574C114.712 172.062 114.96 172.466 115.251 172.782C115.542 173.099 115.878 173.335 116.257 173.488C116.646 173.633 117.074 173.705 117.542 173.705C118.142 173.705 118.667 173.588 119.117 173.353C119.568 173.118 119.943 172.75 120.243 172.252C120.552 171.745 120.782 171.098 120.932 170.31C121.082 169.514 121.157 168.563 121.157 167.458Z" fill="black"/>
<path d="M151.081 165.426V166.843H143.151V165.426H151.081ZM147.855 161.962V170.6H146.385V161.962H147.855Z" fill="black"/>
<path d="M246.362 145.365H178.11C175.114 145.365 172.686 147.856 172.686 150.928V180.598C172.686 183.671 175.114 186.161 178.11 186.161H246.362C249.358 186.161 251.786 183.671 251.786 180.598V150.928C251.786 147.856 249.358 145.365 246.362 145.365Z" fill="white"/>
<path d="M210.567 174.631C210.567 174.205 210.695 173.848 210.951 173.558C211.216 173.259 211.596 173.11 212.09 173.11C212.585 173.11 212.96 173.259 213.216 173.558C213.481 173.848 213.613 174.205 213.613 174.631C213.613 175.048 213.481 175.401 213.216 175.69C212.96 175.981 212.585 176.125 212.09 176.125C211.596 176.125 211.216 175.981 210.951 175.69C210.695 175.401 210.567 175.048 210.567 174.631Z" fill="black"/>
<path d="M329.982 145.365H261.73C258.734 145.365 256.306 147.856 256.306 150.928V180.598C256.306 183.671 258.734 186.161 261.73 186.161H329.982C332.978 186.161 335.406 183.671 335.406 180.598V150.928C335.406 147.856 332.978 145.365 329.982 145.365Z" fill="#1A73E8"/>
<path d="M295.485 161.507L298.721 164.836H285.912V166.69H298.721L295.476 170.019L296.76 171.326L302.184 165.763L296.76 160.2L295.485 161.507ZM303.088 160.2V171.326H304.896V160.2H303.088Z" fill="white"/>
</g>
<defs>
<clipPath id="clip0_1701_6743">
<rect width="339" height="191" fill="white" transform="translate(0.925781 0.724365)"/>
</clipPath>
</defs>
</svg>
