<svg width="17" height="17" viewBox="0 0 17 17" fill="none" xmlns="http://www.w3.org/2000/svg">
<path d="M16.6716 8.46813C16.6716 13.009 12.9905 16.6902 8.44958 16.6902C3.90867 16.6902 0.227539 13.009 0.227539 8.46813C0.227539 3.92723 3.90867 0.246094 8.44958 0.246094C12.9905 0.246094 16.6716 3.92723 16.6716 8.46813Z" fill="white"/>
<path fill-rule="evenodd" clip-rule="evenodd" d="M8.44958 4.56266C8.79015 4.56266 9.06623 4.83875 9.06623 5.17932V8.21271L10.9411 10.0876C11.1819 10.3284 11.1819 10.7189 10.9411 10.9597C10.7003 11.2005 10.3099 11.2005 10.069 10.9597L8.01354 8.90417C7.89789 8.78853 7.83292 8.63168 7.83292 8.46813V5.17932C7.83292 4.83875 8.10901 4.56266 8.44958 4.56266Z" fill="black"/>
</svg>
