<svg width="167" height="23" viewBox="0 0 167 23" fill="none" xmlns="http://www.w3.org/2000/svg">
<path d="M103.18 15.2073C105.021 10.3662 106.861 5.52624 108.701 0.687378H114.444V21.8088H109.575V9.36433L109.507 9.3485C108.04 13.5003 106.571 17.6552 105.102 21.8128H101.136L96.7116 9.34058L96.6554 9.35154V21.765C96.4246 21.8414 92.0834 21.8563 91.7611 21.7872V0.68951H97.5387L103.116 15.2119L103.18 15.2073Z" fill="#FFC91C"/>
<path d="M53.6587 0.364624C56.385 0.371627 58.639 1.14322 60.5719 2.83531C62.4427 4.47321 63.5667 6.58581 63.9801 9.11131C64.2908 11.0111 64.2302 12.9017 63.6339 14.7305C62.3801 18.5754 59.8466 20.9566 56.0835 21.8091C53.7115 22.3457 51.3851 22.0792 49.2041 20.9261C46.1228 19.2967 44.2917 16.651 43.7228 13.0646C43.3962 11.005 43.5457 8.96758 44.3119 7.02885C45.6704 3.59016 48.1162 1.48426 51.5389 0.626796C51.8663 0.545799 52.1981 0.487002 52.5325 0.450797C52.9811 0.399946 53.4329 0.380762 53.6587 0.364624ZM48.5853 11.0738C48.5853 12.0317 48.6935 12.8865 48.9188 13.6011C49.4228 15.2009 50.3731 16.372 51.8889 16.981C52.6372 17.2816 53.4205 17.3562 54.2147 17.316C56.2956 17.2088 57.8076 16.161 58.6202 14.1468C59.4156 12.1752 59.3917 10.1423 58.6044 8.16615C58.0179 6.6939 56.9617 5.71129 55.4907 5.27008C54.6852 5.0283 53.861 4.99603 53.0327 5.11478C51.071 5.39431 49.7485 6.53313 49.0204 8.45877C48.6918 9.32811 48.6029 10.245 48.5853 11.0738Z" fill="#FFC91C"/>
<path d="M67.0826 11.1791C67.1218 8.52174 67.8751 6.14544 69.5163 4.11475C71.0785 2.1821 73.0647 1.00887 75.4286 0.556391C77.4573 0.16907 79.4603 0.307313 81.3756 1.13737C84.798 2.62058 86.8659 5.30899 87.5205 9.15204C87.9408 11.6243 87.6803 14.0356 86.5711 16.2831C85.0308 19.4039 82.5829 21.2735 79.3042 21.8715C76.5766 22.3691 73.9934 21.8913 71.6592 20.2756C69.1981 18.5704 67.7441 16.147 67.2655 13.0828C67.1691 12.4552 67.142 11.8143 67.0826 11.1791ZM82.709 11.1355C82.696 10.3871 82.6282 9.57986 82.3839 8.80187C81.8559 7.12196 80.8549 5.9128 79.2393 5.3373C78.3776 5.03037 77.4867 4.98591 76.5895 5.11258C74.5277 5.40368 73.1853 6.62715 72.4889 8.67155C72.2734 9.30551 72.1857 9.96749 72.1473 10.6392C72.0896 11.6517 72.1629 12.6489 72.4647 13.6141C72.9664 15.2146 73.925 16.3823 75.4419 16.9861C76.192 17.2842 76.9747 17.357 77.7689 17.3147C79.8247 17.2057 81.2847 16.154 82.154 14.1939C82.5746 13.2488 82.6975 12.2348 82.7096 11.1355H82.709Z" fill="#FFC91C"/>
<path d="M35.8268 13.5043L40.4219 21.8314H40.0777C38.4431 21.8314 36.8085 21.8274 35.1734 21.8366C34.9619 21.8366 34.852 21.7626 34.7513 21.5683C33.4638 19.0866 32.165 16.612 30.8789 14.1294C30.7664 13.912 30.6429 13.8225 30.4104 13.8414C30.1452 13.8627 29.8772 13.8463 29.5812 13.8463V21.7714C29.3542 21.8402 25.2371 21.8628 24.723 21.8086C24.661 21.5787 24.6299 1.55065 24.6925 0.699585C24.7626 0.686339 24.8334 0.677601 24.9045 0.673398C27.683 0.673398 30.4617 0.663958 33.2419 0.680097C34.5739 0.687709 35.8606 0.955972 37.052 1.61399C38.9818 2.67973 40.0001 4.38918 40.2159 6.65555C40.3362 7.91739 40.1475 9.12198 39.6072 10.2593C38.8675 11.815 37.6619 12.7896 36.1245 13.3451C36.0342 13.3776 35.9454 13.4151 35.8565 13.4516C35.8487 13.4544 35.8461 13.4684 35.8268 13.5043ZM29.5986 4.97046V10.1774C29.6756 10.1816 29.7318 10.1874 29.7884 10.1874C30.7592 10.1874 31.7302 10.1914 32.7022 10.1835C32.9327 10.1818 33.1626 10.1586 33.3893 10.1143C34.3151 9.93164 34.9339 9.38171 35.1745 8.40184C35.2818 7.96428 35.2856 7.51545 35.2363 7.07088C35.1235 6.05386 34.5165 5.32003 33.5806 5.08526C33.2719 5.00883 32.9563 4.968 32.6393 4.96346C31.7069 4.94763 30.7742 4.95707 29.8409 4.95798C29.7659 4.95707 29.6909 4.96559 29.5986 4.97046Z" fill="#FFC91C"/>
<path d="M151.395 15.5024H156.573C156.593 15.588 156.619 15.6729 156.633 15.76C156.844 17.0757 157.652 17.8379 158.916 17.9015C159.378 17.9292 159.84 17.8552 160.274 17.6841C161.665 17.1269 161.697 15.2719 160.8 14.5213C160.435 14.2168 160.059 13.9358 159.622 13.7692C158.901 13.4933 158.173 13.233 157.443 12.9824C156.465 12.6474 155.496 12.2903 154.562 11.8308C153.653 11.3828 152.912 10.7224 152.315 9.87863C151.897 9.29035 151.655 8.62228 151.541 7.90153C151.37 6.81478 151.405 5.7396 151.715 4.68117C152.053 3.52408 152.718 2.61668 153.637 1.90598C154.62 1.14657 155.729 0.709002 156.922 0.514733C158.418 0.271135 159.911 0.301586 161.388 0.681294C162.488 0.964477 163.486 1.46568 164.346 2.25341C165.442 3.25825 166.031 4.54476 166.217 6.05019C166.242 6.25055 166.257 6.45213 166.276 6.64883C166.064 6.72039 161.387 6.74018 160.989 6.67532C160.975 6.58397 160.96 6.4844 160.943 6.38696C160.778 5.45307 160.245 4.87514 159.39 4.62088C158.861 4.46376 158.326 4.45584 157.799 4.63367C157.077 4.87727 156.672 5.46647 156.63 6.26486C156.59 7.0462 156.898 7.61591 157.523 8.00902C158.17 8.41583 158.873 8.69049 159.576 8.96392C160.675 9.39022 161.779 9.80586 162.87 10.2547C163.728 10.6079 164.495 11.1176 165.151 11.8155C166.028 12.7473 166.467 13.8605 166.52 15.165C166.587 16.8184 166.168 18.2971 165.138 19.5568C164.265 20.6259 163.146 21.2961 161.871 21.68C160.741 22.0202 159.585 22.0984 158.415 22.0171C157.303 21.9401 156.226 21.7147 155.197 21.2559C153.998 20.7224 153.007 19.9161 152.289 18.759C151.722 17.8455 151.46 16.8276 151.395 15.7463C151.391 15.6781 151.395 15.6074 151.395 15.5024Z" fill="#FFC91C"/>
<path d="M123.989 4.80602V9.06898H130.449C130.518 9.31258 130.543 12.3244 130.485 13.0503C130.19 13.0768 129.886 13.0591 129.584 13.0622C129.276 13.0652 128.969 13.0622 128.661 13.0622H124.028C123.96 13.3106 123.934 16.9734 123.992 17.6753C124.328 17.6957 124.671 17.682 125.012 17.6844C125.368 17.6869 125.724 17.6844 126.08 17.6844H131.344V21.776C131.141 21.8399 119.459 21.8582 119.091 21.7918V0.69165H131.319C131.377 0.908452 131.387 4.44701 131.328 4.80602H123.989Z" fill="#FFC91C"/>
<path d="M140.312 13.0618V17.6783C140.726 17.6804 141.135 17.6831 141.544 17.6844H147.672V21.7786C147.475 21.8414 135.77 21.8563 135.417 21.7917V0.691284H147.647C147.705 0.914481 147.713 4.46248 147.654 4.80748H140.351C140.288 5.06113 140.28 8.74097 140.339 9.07044H146.778C146.845 9.31404 146.868 12.3928 146.811 13.0508C146.39 13.0773 145.962 13.059 145.534 13.0624C145.102 13.0657 144.669 13.0624 144.236 13.0624H140.313L140.312 13.0618Z" fill="#FFC91C"/>
<path d="M10.949 13.0008V9.22843C11.0509 9.22478 11.1432 9.21839 11.2352 9.21808C11.841 9.21595 12.4469 9.21808 13.0527 9.21321C13.4093 9.21294 13.7628 9.14339 14.0956 9.00798C14.8442 8.70074 15.2458 8.1155 15.2836 7.27234C15.297 6.97905 15.2777 6.68512 15.2259 6.39661C15.1166 5.8001 14.775 5.37715 14.26 5.11133C13.8867 4.91989 13.4767 4.82141 13.0616 4.82358C11.2922 4.81749 9.5228 4.81475 7.75339 4.81535H7.41817C7.35066 4.58424 7.33162 1.09409 7.3948 0.690331C7.47384 0.68485 7.55751 0.673584 7.64088 0.673584H13.93C15.0442 0.673584 16.1329 0.838926 17.1712 1.28836C18.0041 1.64889 18.7239 2.17628 19.2896 2.9226C19.8553 3.66892 20.149 4.51786 20.2488 5.45754C20.3354 6.27542 20.2904 7.08295 20.0521 7.8652C19.6193 9.27989 18.6962 10.2159 17.4193 10.7884C17.2964 10.8432 17.1706 10.891 16.9846 10.9674C17.108 11.0155 17.179 11.0475 17.2526 11.0716C19.0565 11.6565 20.1877 12.943 20.6019 14.8583C20.9747 16.5805 20.6992 18.2138 19.611 19.6176C18.8476 20.602 17.8327 21.1787 16.6822 21.5055C15.9389 21.7159 15.1727 21.823 14.4031 21.8246C13.3262 21.8294 12.2492 21.8273 11.172 21.8273C11.1065 21.8273 11.0408 21.8188 10.9577 21.8127V17.6654H11.2713C11.9348 17.6654 12.5983 17.6761 13.2619 17.6594C13.5685 17.6545 13.8739 17.6164 14.1732 17.5461C15.3704 17.2501 15.8782 16.3348 15.7738 15.108C15.6506 13.6592 14.5834 13.1108 13.6732 13.0474C12.8877 12.9926 12.0975 13.0133 11.3096 13.0012C11.1974 12.9993 11.0846 13.0008 10.949 13.0008Z" fill="#FFC91C"/>
<path d="M6.57721 17.4944H8.98843L10.535 21.8396C10.1545 22.0329 10.059 21.6892 9.86111 21.4489L9.92804 21.8685H7.65329L7.52808 21.4483L7.49202 21.444C7.46874 21.5759 7.44537 21.708 7.42192 21.8399C7.21132 21.899 4.99858 21.9215 4.41756 21.8685C4.3639 21.7336 4.3062 21.5896 4.24879 21.4453L4.21475 21.4507V21.87H1.94115C1.90855 21.7391 1.87595 21.6072 1.8295 21.4203C1.74296 21.5987 1.67833 21.729 1.60852 21.8709H0.666016C0.702943 21.7832 0.727464 21.7102 0.762949 21.6438C1.03759 21.1319 1.3082 20.6176 1.59323 20.1122C1.74803 19.832 1.86917 19.5327 1.95384 19.2209C2.08857 18.745 2.22964 18.2715 2.36956 17.7974C2.39841 17.7024 2.43245 17.6095 2.47053 17.4968H4.61027V0.753452C5.09321 0.753452 5.54326 0.735485 5.991 0.759845C6.2717 0.774765 6.5172 1.10789 6.5625 1.47785C6.57649 1.62961 6.58122 1.7822 6.57663 1.9346V17.0623L6.57721 17.4944Z" fill="#FFC91C"/>
</svg>
