<svg width="21" height="22" viewBox="0 0 21 22" fill="none" xmlns="http://www.w3.org/2000/svg">
<path d="M0.1026 10.7179C0.141835 8.08883 0.89509 5.73779 2.53632 3.72867C4.0985 1.81657 6.08477 0.655803 8.44867 0.208128C10.4773 -0.175077 12.4803 -0.0383035 14.3956 0.782936C17.818 2.25038 19.8859 4.91022 20.5405 8.71245C20.9608 11.1584 20.7003 13.5441 19.5911 15.7677C18.0508 18.8553 15.603 20.7051 12.3243 21.2968C9.59657 21.789 7.01342 21.3163 4.67923 19.7178C2.21811 18.0308 0.764114 15.633 0.285506 12.6014C0.18915 11.9805 0.162029 11.3464 0.1026 10.7179ZM15.729 10.6749C15.7161 9.93436 15.6483 9.13572 15.4039 8.366C14.876 6.70393 13.8749 5.50762 12.2593 4.93824C11.3976 4.63457 10.5068 4.59058 9.60956 4.71591C7.54771 5.00391 6.20535 6.21438 5.50893 8.23705C5.29343 8.86428 5.20573 9.51922 5.16736 10.1838C5.10966 11.1855 5.18294 12.1721 5.4847 13.1271C5.98639 14.7106 6.94505 15.8659 8.46194 16.4633C9.21202 16.7582 9.99469 16.8302 10.7889 16.7884C12.8447 16.6805 14.3048 15.64 15.174 13.7007C15.5946 12.7656 15.7175 11.7624 15.7296 10.6749H15.729Z" fill="#FFC91C"/>
</svg>
