<svg width="25" height="24" viewBox="0 0 25 24" fill="none" xmlns="http://www.w3.org/2000/svg">
<path d="M9.22128 15.614C8.84692 15.3468 8.31849 15.4225 8.041 15.7829C7.76351 16.1434 7.84204 16.6523 8.2164 16.9195C9.31036 17.7004 10.6482 18.1626 12.0938 18.1626C13.5394 18.1626 14.8773 17.7004 15.9713 16.9195C16.3456 16.6523 16.4242 16.1434 16.1467 15.7829C15.8692 15.4225 15.3408 15.3468 14.9664 15.614C14.147 16.1989 13.158 16.5376 12.0938 16.5376C11.0297 16.5376 10.0407 16.1989 9.22128 15.614Z" fill="#7D7D7D"/>
<path fill-rule="evenodd" clip-rule="evenodd" d="M12.0938 0.287842C11.2781 0.287842 10.5338 0.503547 9.71919 0.869704C8.93061 1.22415 8.01869 1.74726 6.87581 2.40286L5.23825 3.34222C3.97925 4.06441 2.97602 4.63988 2.21642 5.19019C1.43228 5.75827 0.843737 6.34325 0.460205 7.11362C0.0764841 7.88438 -0.0275169 8.69104 0.00584291 9.6325C0.0381333 10.5438 0.203683 11.6516 0.411259 13.0407L0.740158 15.2418C1.00722 17.0292 1.21915 18.4476 1.53576 19.5519C1.86213 20.6902 2.32521 21.5937 3.16086 22.2866C3.99582 22.9789 4.99482 23.2886 6.21714 23.4362C7.40424 23.5795 8.90191 23.5795 10.7913 23.5795H13.3961C15.2856 23.5795 16.7833 23.5795 17.9704 23.4362C19.1927 23.2886 20.1917 22.9789 21.0267 22.2866C21.8623 21.5937 22.3254 20.6902 22.6518 19.5519C22.9684 18.4476 23.1803 17.0292 23.4473 15.2419L23.7763 13.0407C23.9838 11.6516 24.1494 10.5438 24.1817 9.6325C24.215 8.69104 24.111 7.88438 23.7273 7.11362C23.3438 6.34325 22.7552 5.75827 21.9711 5.19019C21.2115 4.63988 20.2083 4.06441 18.9493 3.34222L17.3117 2.40287C16.1688 1.74726 15.2569 1.22415 14.4683 0.869703C13.6537 0.503547 12.9094 0.287842 12.0938 0.287842ZM7.70128 3.82082C8.89097 3.13837 9.73039 2.65797 10.4329 2.3422C11.1182 2.03421 11.6108 1.91284 12.0938 1.91284C12.5767 1.91284 13.0694 2.03421 13.7546 2.3422C14.4571 2.65797 15.2965 3.13837 16.4862 3.82082L18.0442 4.7145C19.354 5.46588 20.2783 5.99737 20.9566 6.48873C21.6186 6.96834 21.9811 7.3652 22.2056 7.81611C22.4299 8.26664 22.5232 8.78482 22.4951 9.57709C22.4664 10.3894 22.3151 11.4097 22.099 12.8556L21.7854 14.9545C21.5081 16.8104 21.3099 18.1262 21.0251 19.1194C20.7468 20.0899 20.4119 20.6519 19.9255 21.0552C19.4386 21.459 18.8072 21.6974 17.7604 21.8238C16.6904 21.953 15.2986 21.9545 13.3381 21.9545H10.8494C8.8889 21.9545 7.49706 21.953 6.42712 21.8238C5.38026 21.6974 4.74895 21.459 4.26196 21.0552C3.77566 20.6519 3.44068 20.0899 3.1624 19.1194C2.87764 18.1262 2.67942 16.8104 2.40209 14.9544L2.08848 12.8556C1.87242 11.4097 1.72115 10.3894 1.69236 9.57709C1.66429 8.78482 1.75758 8.26664 1.98188 7.81611C2.20636 7.3652 2.56891 6.96834 3.23093 6.48873C3.90917 5.99737 4.83348 5.46588 6.14334 4.7145L7.70128 3.82082Z" fill="#7D7D7D"/>
</svg>
