<svg width="167" height="176" viewBox="0 0 167 176" fill="none" xmlns="http://www.w3.org/2000/svg">
<g clip-path="url(#clip0_1701_7165)">
<path d="M103.18 92.2075C105.021 87.3664 106.861 82.5264 108.701 77.6876H114.444V98.809H109.575V86.3645L109.507 86.3487C108.04 90.5005 106.571 94.6554 105.102 98.813H101.136L96.7116 86.3408L96.6554 86.3517V98.7652C96.4246 98.8416 92.0834 98.8565 91.7611 98.7874V77.6897H97.5387L103.116 92.2121L103.18 92.2075Z" fill="#FFC91C"/>
<path d="M53.6587 77.3648C56.385 77.3718 58.639 78.1434 60.5719 79.8355C62.4427 81.4734 63.5667 83.586 63.9801 86.1115C64.2908 88.0113 64.2302 89.9019 63.6339 91.7307C62.3801 95.5756 59.8466 97.9568 56.0835 98.8094C53.7115 99.3459 51.3851 99.0794 49.2041 97.9263C46.1228 96.2969 44.2917 93.6512 43.7228 90.0648C43.3962 88.0052 43.5457 85.9678 44.3119 84.0291C45.6704 80.5904 48.1162 78.4845 51.5389 77.627C51.8663 77.546 52.1981 77.4872 52.5325 77.451C52.9811 77.4002 53.4329 77.381 53.6587 77.3648ZM48.5853 88.074C48.5853 89.0319 48.6935 89.8867 48.9188 90.6013C49.4228 92.2012 50.3731 93.3722 51.8889 93.9812C52.6372 94.2818 53.4205 94.3564 54.2147 94.3162C56.2956 94.209 57.8076 93.1612 58.6202 91.147C59.4156 89.1754 59.3917 87.1425 58.6044 85.1664C58.0179 83.6941 56.9617 82.7115 55.4907 82.2703C54.6852 82.0285 53.861 81.9962 53.0327 82.115C51.071 82.3945 49.7485 83.5333 49.0204 85.459C48.6918 86.3283 48.6029 87.2452 48.5853 88.074Z" fill="#FFC91C"/>
<path d="M67.0825 88.1793C67.1218 85.522 67.875 83.1457 69.5162 81.115C71.0784 79.1824 73.0647 78.0091 75.4286 77.5567C77.4573 77.1693 79.4603 77.3076 81.3756 78.1376C84.7979 79.6208 86.8658 82.3093 87.5204 86.1523C87.9408 88.6245 87.6803 91.0358 86.571 93.2833C85.0307 96.4041 82.5829 98.2737 79.3042 98.8718C76.5765 99.3693 73.9933 98.8916 71.6591 97.2759C69.198 95.5707 67.744 93.1472 67.2654 90.0831C67.1691 89.4555 67.1419 88.8145 67.0825 88.1793ZM82.709 88.1358C82.696 87.3874 82.6282 86.5801 82.3838 85.8021C81.8559 84.1222 80.8548 82.9131 79.2393 82.3376C78.3775 82.0306 77.4867 81.9862 76.5895 82.1128C74.5276 82.4039 73.1853 83.6274 72.4889 85.6718C72.2733 86.3058 72.1857 86.9678 72.1473 87.6395C72.0896 88.6519 72.1629 89.6492 72.4646 90.6144C72.9663 92.2149 73.925 93.3826 75.4419 93.9864C76.1919 94.2845 76.9746 94.3573 77.7688 94.315C79.8246 94.206 81.2847 93.1542 82.1539 91.1942C82.5745 90.249 82.6974 89.235 82.7095 88.1358H82.709Z" fill="#FFC91C"/>
<path d="M35.8269 90.5045L40.422 98.8316H40.0778C38.4432 98.8316 36.8086 98.8276 35.1734 98.8368C34.962 98.8368 34.8521 98.7628 34.7514 98.5685C33.4638 96.0868 32.165 93.6122 30.8789 91.1296C30.7664 90.9122 30.643 90.8227 30.4104 90.8416C30.1453 90.8629 29.8773 90.8464 29.5813 90.8464V98.7716C29.3543 98.8404 25.2372 98.8629 24.7231 98.8087C24.6611 98.5788 24.6299 78.5508 24.6925 77.6998C24.7626 77.6865 24.8335 77.6778 24.9046 77.6736C27.683 77.6736 30.4618 77.6641 33.242 77.6803C34.5739 77.6879 35.8606 77.9562 37.0521 78.6142C38.9818 79.6799 40.0002 81.3894 40.216 83.6557C40.3363 84.9176 40.1476 86.1222 39.6073 87.2595C38.8676 88.8151 37.662 89.7898 36.1246 90.3452C36.0343 90.3778 35.9454 90.4153 35.8566 90.4518C35.8488 90.4546 35.8462 90.4686 35.8269 90.5045ZM29.5986 81.9707V87.1776C29.6756 87.1818 29.7319 87.1876 29.7884 87.1876C30.7592 87.1876 31.7303 87.1916 32.7022 87.1836C32.9327 87.182 33.1626 87.1588 33.3894 87.1145C34.3152 86.9318 34.934 86.3819 35.1746 85.402C35.2819 84.9645 35.2857 84.5156 35.2363 84.0711C35.1235 83.0541 34.5165 82.3202 33.5807 82.0854C33.272 82.009 32.9564 81.9682 32.6393 81.9637C31.7069 81.9478 30.7742 81.9573 29.841 81.9582C29.7659 81.9573 29.6909 81.9658 29.5986 81.9707Z" fill="#FFC91C"/>
<path d="M151.395 92.5026H156.573C156.593 92.5882 156.619 92.6731 156.633 92.7602C156.844 94.0759 157.652 94.8381 158.916 94.9017C159.378 94.9294 159.84 94.8555 160.274 94.6843C161.665 94.1271 161.697 92.2721 160.8 91.5215C160.435 91.217 160.059 90.936 159.622 90.7694C158.901 90.4935 158.173 90.2332 157.443 89.9826C156.465 89.6476 155.496 89.2905 154.562 88.831C153.653 88.3831 152.912 87.7226 152.315 86.8788C151.897 86.2906 151.655 85.6225 151.541 84.9017C151.37 83.815 151.405 82.7398 151.715 81.6814C152.053 80.5243 152.718 79.6169 153.637 78.9062C154.62 78.1468 155.729 77.7092 156.922 77.5149C158.418 77.2713 159.911 77.3018 161.388 77.6815C162.488 77.9647 163.486 78.4659 164.346 79.2536C165.442 80.2585 166.031 81.545 166.217 83.0504C166.242 83.2508 166.257 83.4523 166.276 83.649C166.064 83.7206 161.387 83.7404 160.989 83.6755C160.975 83.5842 160.96 83.4846 160.943 83.3872C160.778 82.4533 160.245 81.8753 159.39 81.6211C158.861 81.464 158.326 81.456 157.799 81.6339C157.077 81.8775 156.672 82.4667 156.63 83.2651C156.59 84.0464 156.898 84.6161 157.523 85.0092C158.17 85.416 158.873 85.6907 159.576 85.9641C160.675 86.3904 161.779 86.8061 162.87 87.2549C163.728 87.6081 164.495 88.1178 165.151 88.8157C166.028 89.7475 166.467 90.8608 166.52 92.1652C166.587 93.8186 166.168 95.2973 165.138 96.557C164.265 97.6261 163.146 98.2963 161.871 98.6802C160.741 99.0204 159.585 99.0986 158.415 99.0173C157.303 98.9403 156.226 98.715 155.197 98.2561C153.998 97.7226 153.007 96.9163 152.289 95.7592C151.722 94.8457 151.46 93.8278 151.395 92.7465C151.391 92.6783 151.395 92.6077 151.395 92.5026Z" fill="#FFC91C"/>
<path d="M123.989 81.8062V86.0692H130.449C130.518 86.3128 130.543 89.3245 130.485 90.0505C130.19 90.077 129.886 90.0593 129.584 90.0623C129.276 90.0654 128.969 90.0623 128.661 90.0623H124.028C123.96 90.3108 123.934 93.9736 123.992 94.6755C124.328 94.6959 124.671 94.6822 125.012 94.6846C125.368 94.6871 125.724 94.6846 126.08 94.6846H131.344V98.7761C131.141 98.8401 119.459 98.8584 119.091 98.792V77.6918H131.319C131.377 77.9086 131.387 81.4472 131.328 81.8062H123.989Z" fill="#FFC91C"/>
<path d="M140.312 90.062V94.6785C140.726 94.6807 141.135 94.6834 141.544 94.6846H147.672V98.7789C147.475 98.8416 135.77 98.8565 135.417 98.792V77.6915H147.647C147.705 77.9147 147.713 81.4627 147.654 81.8077H140.351C140.288 82.0614 140.28 85.7412 140.339 86.0707H146.778C146.845 86.3143 146.868 89.3931 146.811 90.0511C146.39 90.0776 145.962 90.0593 145.534 90.0627C145.102 90.066 144.669 90.0627 144.236 90.0627H140.313L140.312 90.062Z" fill="#FFC91C"/>
<path d="M10.949 90.0011V86.2287C11.0509 86.2251 11.1432 86.2187 11.2352 86.2184C11.841 86.2162 12.4469 86.2184 13.0527 86.2135C13.4093 86.2132 13.7628 86.1437 14.0956 86.0083C14.8442 85.701 15.2458 85.1158 15.2836 84.2726C15.297 83.9793 15.2777 83.6854 15.2259 83.3969C15.1166 82.8004 14.775 82.3775 14.26 82.1116C13.8867 81.9202 13.4767 81.8217 13.0616 81.8239C11.2922 81.8178 9.5228 81.815 7.75339 81.8157H7.41817C7.35066 81.5845 7.33162 78.0944 7.3948 77.6906C7.47384 77.6851 7.55751 77.6739 7.64088 77.6739H13.93C15.0442 77.6739 16.1329 77.8392 17.1712 78.2887C18.0041 78.6492 18.7239 79.1766 19.2896 79.9229C19.8553 80.6692 20.149 81.5182 20.2488 82.4578C20.3354 83.2757 20.2904 84.0832 20.0521 84.8655C19.6193 86.2802 18.6962 87.2162 17.4193 87.7887C17.2964 87.8435 17.1706 87.8913 16.9846 87.9677C17.108 88.0158 17.179 88.0478 17.2526 88.0719C19.0565 88.6568 20.1877 89.9433 20.6019 91.8586C20.9747 93.5808 20.6992 95.2141 19.611 96.6179C18.8476 97.6023 17.8327 98.179 16.6822 98.5058C15.9389 98.7162 15.1727 98.8233 14.4031 98.8249C13.3262 98.8297 12.2492 98.8276 11.172 98.8276C11.1065 98.8276 11.0408 98.8191 10.9577 98.813V94.6657H11.2713C11.9348 94.6657 12.5983 94.6764 13.2619 94.6597C13.5685 94.6548 13.8739 94.6167 14.1732 94.5464C15.3704 94.2504 15.8782 93.3351 15.7738 92.1083C15.6506 90.6595 14.5834 90.1111 13.6732 90.0477C12.8877 89.9929 12.0975 90.0136 11.3096 90.0015C11.1974 89.9996 11.0846 90.0011 10.949 90.0011Z" fill="#FFC91C"/>
<path d="M6.57721 94.4946H8.98843L10.535 98.8398C10.1545 99.0331 10.059 98.6894 9.86111 98.4491L9.92804 98.8687H7.65329L7.52808 98.4485L7.49202 98.4443C7.46874 98.5761 7.44537 98.7083 7.42192 98.8401C7.21132 98.8992 4.99858 98.9217 4.41756 98.8687C4.3639 98.7338 4.3062 98.5898 4.24879 98.4455L4.21475 98.451V98.8702H1.94115C1.90855 98.7393 1.87595 98.6075 1.8295 98.4205C1.74296 98.5989 1.67833 98.7293 1.60852 98.8712H0.666016C0.702943 98.7835 0.727464 98.7104 0.762949 98.644C1.03759 98.1321 1.3082 97.6178 1.59323 97.1124C1.74803 96.8322 1.86917 96.5329 1.95384 96.2211C2.08857 95.7452 2.22964 95.2717 2.36956 94.7976C2.39841 94.7026 2.43245 94.6097 2.47053 94.4971H4.61027V77.7537C5.09321 77.7537 5.54326 77.7357 5.991 77.7601C6.2717 77.775 6.5172 78.1081 6.5625 78.4781C6.57649 78.6298 6.58122 78.7824 6.57663 78.9348V94.0625L6.57721 94.4946Z" fill="#FFC91C"/>
</g>
<defs>
<clipPath id="clip0_1701_7165">
<rect width="165.883" height="175.086" fill="white" transform="translate(0.666016 0.678711)"/>
</clipPath>
</defs>
</svg>
