<svg width="18" height="17" viewBox="0 0 18 17" fill="none" xmlns="http://www.w3.org/2000/svg">
<path d="M0.891303 0.862264C1.01143 0.520601 1.38578 0.341005 1.72744 0.461127L1.99097 0.553777C2.53002 0.743275 2.98786 0.90422 3.34816 1.08101C3.73343 1.27005 4.0638 1.50292 4.31227 1.86652C4.55882 2.22731 4.6606 2.62314 4.70758 3.05715C4.72861 3.25143 4.73971 3.46647 4.74556 3.70283H14.047C15.5202 3.70283 16.8464 3.70283 17.2346 4.2074C17.6227 4.71197 17.471 5.47223 17.1675 6.99276L16.7305 9.1128C16.455 10.4496 16.3172 11.118 15.8348 11.5111C15.3524 11.9042 14.67 11.9042 13.3051 11.9042H8.6686C6.23014 11.9042 5.01091 11.9042 4.25338 11.1052C3.49585 10.3062 3.44056 9.45737 3.44056 6.88544L3.44056 4.61068C3.44056 3.96371 3.43967 3.53072 3.40368 3.19829C3.3693 2.8806 3.30835 2.72197 3.22943 2.60648C3.15244 2.49381 3.03557 2.38852 2.77044 2.25843C2.48817 2.11992 2.10455 1.98392 1.52083 1.7787L1.29244 1.6984C0.950776 1.57828 0.771181 1.20393 0.891303 0.862264Z" fill="black"/>
<path d="M5.6266 14.1949C6.35093 14.1949 6.93812 14.7821 6.93812 15.5065C6.93812 16.2308 6.35093 16.818 5.6266 16.818C4.90227 16.818 4.31509 16.2308 4.31509 15.5065C4.31509 14.7821 4.90227 14.1949 5.6266 14.1949Z" fill="black"/>
<path d="M13.4957 14.195C14.22 14.195 14.8072 14.7822 14.8072 15.5065C14.8072 16.2309 14.22 16.818 13.4957 16.818C12.7714 16.818 12.1842 16.2309 12.1842 15.5065C12.1842 14.7822 12.7714 14.195 13.4957 14.195Z" fill="black"/>
</svg>
