<svg width="19" height="20" viewBox="0 0 19 20" fill="none" xmlns="http://www.w3.org/2000/svg">
<path fill-rule="evenodd" clip-rule="evenodd" d="M7.23358 1.9776C7.80065 1.49435 8.08419 1.25272 8.38064 1.11102C9.06629 0.783304 9.86339 0.783304 10.5491 1.11102C10.8455 1.25272 11.129 1.49434 11.6961 1.9776C11.9218 2.16993 12.0346 2.2661 12.1552 2.34688C12.4314 2.53205 12.7417 2.66056 13.068 2.72498C13.2103 2.75308 13.3581 2.76488 13.6537 2.78847C14.3964 2.84773 14.7677 2.87737 15.0776 2.98679C15.7941 3.23989 16.3578 3.80353 16.6109 4.52009C16.7203 4.82991 16.7499 5.20125 16.8092 5.94394C16.8328 6.23953 16.8446 6.38733 16.8727 6.52967C16.9371 6.85596 17.0656 7.16622 17.2508 7.44249C17.3316 7.56301 17.4277 7.67586 17.6201 7.90155C18.1033 8.46862 18.3449 8.75216 18.4866 9.0486C18.8144 9.73426 18.8144 10.5314 18.4866 11.217C18.3449 11.5135 18.1033 11.797 17.6201 12.3641C17.4277 12.5898 17.3316 12.7026 17.2508 12.8231C17.0656 13.0994 16.9371 13.4097 16.8727 13.736C16.8446 13.8783 16.8328 14.0261 16.8092 14.3217C16.7499 15.0644 16.7203 15.4357 16.6109 15.7455C16.3578 16.4621 15.7941 17.0257 15.0776 17.2788C14.7677 17.3883 14.3964 17.4179 13.6537 17.4772C13.3581 17.5007 13.2103 17.5125 13.068 17.5406C12.7417 17.6051 12.4314 17.7336 12.1552 17.9187C12.0346 17.9995 11.9218 18.0957 11.6961 18.288C11.129 18.7713 10.8455 19.0129 10.5491 19.1546C9.86339 19.4823 9.06629 19.4823 8.38064 19.1546C8.08419 19.0129 7.80065 18.7713 7.23358 18.288C7.00789 18.0957 6.89504 17.9995 6.77452 17.9187C6.49825 17.7336 6.18799 17.6051 5.8617 17.5406C5.71936 17.5125 5.57157 17.5007 5.27597 17.4772C4.53328 17.4179 4.16194 17.3883 3.85213 17.2788C3.13556 17.0257 2.57193 16.4621 2.31883 15.7455C2.2094 15.4357 2.17976 15.0644 2.1205 14.3217C2.09691 14.0261 2.08511 13.8783 2.05701 13.736C1.99259 13.4097 1.86408 13.0994 1.67891 12.8231C1.59813 12.7026 1.50194 12.5897 1.30963 12.3641C0.826374 11.797 0.584748 11.5135 0.443056 11.217C0.115335 10.5314 0.115335 9.73426 0.443056 9.0486C0.584747 8.75216 0.826381 8.46861 1.30963 7.90155C1.50196 7.67586 1.59813 7.56301 1.67891 7.44249C1.86408 7.16622 1.99259 6.85596 2.05701 6.52967C2.08511 6.38733 2.09691 6.23953 2.1205 5.94394C2.17976 5.20125 2.2094 4.82991 2.31883 4.52009C2.57193 3.80353 3.13556 3.23989 3.85213 2.98679C4.16194 2.87737 4.53328 2.84773 5.27597 2.78847C5.57157 2.76488 5.71936 2.75308 5.8617 2.72498C6.18799 2.66056 6.49825 2.53205 6.77452 2.34688C6.89504 2.2661 7.00789 2.16993 7.23358 1.9776ZM12.6707 7.46628C13.068 7.81942 13.1038 8.42776 12.7507 8.82505L9.32862 12.6749C9.15835 12.8664 8.91871 12.9821 8.66282 12.9964C8.40693 13.0107 8.15592 12.9223 7.96543 12.7508L6.2544 11.2109C5.8593 10.8553 5.82728 10.2468 6.18286 9.85167C6.53845 9.45657 7.147 9.42454 7.54209 9.78013L8.5333 10.6722L11.312 7.54621C11.6651 7.14893 12.2735 7.11314 12.6707 7.46628Z" fill="white"/>
</svg>
