<svg width="22" height="23" viewBox="0 0 22 23" fill="none" xmlns="http://www.w3.org/2000/svg">
<path d="M10.2651 4.48488L10.8326 5.55171C11.3447 6.51447 11.1391 7.77744 10.3326 8.62369C10.3326 8.62369 10.3326 8.62369 10.3326 8.6237C10.3324 8.62381 9.35428 9.65028 11.1281 11.5113C12.9012 13.3716 13.8796 12.3467 13.8803 12.3459C13.8804 12.3459 13.8804 12.3459 13.8804 12.3459C14.687 11.4996 15.8908 11.284 16.8084 11.8213L17.8252 12.4166C19.2109 13.228 19.3745 15.2667 18.1566 16.5446C17.4247 17.3124 16.5282 17.9099 15.5371 17.9493C13.8686 18.0157 11.0352 17.5727 8.19294 14.5907C5.35069 11.6087 4.92844 8.63601 4.99169 6.88555C5.02926 5.84572 5.59873 4.90509 6.33059 4.13725C7.54856 2.85941 9.4918 3.0311 10.2651 4.48488Z" stroke="#FFC91C" stroke-width="1.5" stroke-linecap="round"/>
</svg>
