<svg width="20" height="24" viewBox="0 0 20 24" fill="none" xmlns="http://www.w3.org/2000/svg">
<path fill-rule="evenodd" clip-rule="evenodd" d="M9.94434 0.36145C7.14096 0.36145 4.86838 2.64653 4.86838 5.46531C4.86838 8.2841 7.14096 10.5692 9.94434 10.5692C12.7477 10.5692 15.0203 8.2841 15.0203 5.46531C15.0203 2.64653 12.7477 0.36145 9.94434 0.36145ZM6.47131 5.46531C6.47131 3.53667 8.02624 1.9732 9.94434 1.9732C11.8624 1.9732 13.4174 3.53667 13.4174 5.46531C13.4174 7.39395 11.8624 8.95743 9.94434 8.95743C8.02624 8.95743 6.47131 7.39395 6.47131 5.46531Z" fill="#7D7D7D"/>
<path fill-rule="evenodd" clip-rule="evenodd" d="M9.94434 12.1809C7.47202 12.1809 5.19423 12.746 3.50637 13.7006C1.84363 14.6411 0.593893 16.0664 0.593893 17.822L0.593823 17.9316C0.592615 19.18 0.5911 20.7468 1.95789 21.8659C2.63056 22.4167 3.57158 22.8084 4.84296 23.0671C6.11788 23.3266 7.77955 23.4631 9.94434 23.4631C12.1091 23.4631 13.7708 23.3266 15.0457 23.0671C16.3171 22.8084 17.2581 22.4167 17.9308 21.8659C19.2976 20.7468 19.2961 19.18 19.2948 17.9316L19.2948 17.822C19.2948 16.0664 18.045 14.6411 16.3823 13.7006C14.6944 12.746 12.4166 12.1809 9.94434 12.1809ZM2.19683 17.822C2.19683 16.9073 2.86084 15.915 4.29223 15.1054C5.69848 14.31 7.69518 13.7927 9.94434 13.7927C12.1935 13.7927 14.1902 14.31 15.5964 15.1054C17.0278 15.915 17.6918 16.9073 17.6918 17.822C17.6918 19.2273 17.6488 20.0183 16.9186 20.6162C16.5226 20.9404 15.8607 21.2568 14.7277 21.4874C13.5982 21.7173 12.054 21.8514 9.94434 21.8514C7.83464 21.8514 6.29044 21.7173 5.16096 21.4874C4.02794 21.2568 3.36603 20.9404 2.97007 20.6162C2.23991 20.0183 2.19683 19.2273 2.19683 17.822Z" fill="#7D7D7D"/>
</svg>
