<svg width="7" height="8" viewBox="0 0 7 8" fill="none" xmlns="http://www.w3.org/2000/svg">
<path d="M2.8886 2.21568C3.19067 1.63082 3.3417 1.33838 3.56751 1.33838C3.79331 1.33838 3.94434 1.63082 4.24641 2.21568L4.32456 2.36699C4.4104 2.53319 4.45332 2.61629 4.52023 2.67112C4.58715 2.72595 4.6705 2.74631 4.83718 2.78701L4.98893 2.82407C5.57552 2.96732 5.8688 3.03894 5.93858 3.28112C6.00835 3.52331 5.80841 3.77567 5.40852 4.28038L5.30506 4.41096C5.19143 4.55437 5.13461 4.62608 5.10905 4.71481C5.08349 4.80353 5.09208 4.8992 5.10926 5.09056L5.1249 5.26478C5.18536 5.93817 5.21559 6.27486 5.03291 6.42455C4.85023 6.57422 4.57562 6.43776 4.02641 6.16482L3.88433 6.09421C3.72826 6.01665 3.65022 5.97787 3.56751 5.97787C3.48479 5.97787 3.40675 6.01665 3.25068 6.09421L3.1086 6.16482C2.55939 6.43776 2.28478 6.57422 2.1021 6.42455C1.91942 6.27486 1.94965 5.93817 2.01011 5.26478L2.02575 5.09056C2.04293 4.8992 2.05152 4.80353 2.02596 4.71481C2.0004 4.62608 1.94358 4.55437 1.82995 4.41096L1.72649 4.28038C1.3266 3.77567 1.12666 3.52331 1.19643 3.28112C1.26621 3.03894 1.5595 2.96732 2.14607 2.82407L2.29783 2.78701C2.46451 2.74631 2.54786 2.72595 2.61478 2.67112C2.6817 2.61629 2.72461 2.53319 2.81045 2.36699L2.8886 2.21568Z" fill="#FFC91C" stroke="#FFC91C" stroke-width="1.5"/>
</svg>
