<svg width="62" height="62" viewBox="0 0 62 62" fill="none" xmlns="http://www.w3.org/2000/svg">
<g filter="url(#filter0_dd_3297_6052)">
<path fill-rule="evenodd" clip-rule="evenodd" d="M28.801 22.8995C29.368 22.4162 29.6516 22.1746 29.948 22.0329C30.6337 21.7052 31.4308 21.7052 32.1164 22.0329C32.4129 22.1746 32.6964 22.4162 33.2635 22.8995C33.4892 23.0918 33.602 23.188 33.7225 23.2688C33.9988 23.4539 34.3091 23.5824 34.6354 23.6469C34.7777 23.675 34.9255 23.6868 35.2211 23.7103C35.9638 23.7696 36.3351 23.7992 36.6449 23.9087C37.3615 24.1618 37.9251 24.7254 38.1782 25.442C38.2877 25.7518 38.3173 26.1231 38.3766 26.8658C38.4002 27.1614 38.412 27.3092 38.4401 27.4515C38.5045 27.7778 38.633 28.0881 38.8182 28.3644C38.8989 28.4849 38.9951 28.5977 39.1874 28.8234C39.6707 29.3905 39.9123 29.674 40.054 29.9705C40.3817 30.6561 40.3817 31.4532 40.054 32.1389C39.9123 32.4353 39.6707 32.7189 39.1874 33.2859C38.9951 33.5116 38.8989 33.6245 38.8182 33.745C38.633 34.0213 38.5045 34.3315 38.4401 34.6578C38.412 34.8002 38.4002 34.948 38.3766 35.2436C38.3173 35.9862 38.2877 36.3576 38.1782 36.6674C37.9251 37.384 37.3615 37.9476 36.6449 38.2007C36.3351 38.3101 35.9638 38.3398 35.2211 38.399C34.9255 38.4226 34.7777 38.4344 34.6354 38.4625C34.3091 38.5269 33.9988 38.6554 33.7225 38.8406C33.602 38.9214 33.4892 39.0176 33.2635 39.2099C32.6964 39.6932 32.4129 39.9348 32.1164 40.0765C31.4308 40.4042 30.6337 40.4042 29.948 40.0765C29.6516 39.9348 29.368 39.6932 28.801 39.2099C28.5753 39.0176 28.4624 38.9214 28.3419 38.8406C28.0656 38.6554 27.7554 38.5269 27.4291 38.4625C27.2867 38.4344 27.1389 38.4226 26.8434 38.399C26.1007 38.3398 25.7293 38.3101 25.4195 38.2007C24.7029 37.9476 24.1393 37.384 23.8862 36.6674C23.7768 36.3576 23.7471 35.9862 23.6879 35.2436C23.6643 34.948 23.6525 34.8002 23.6244 34.6578C23.56 34.3315 23.4315 34.0213 23.2463 33.745C23.1655 33.6245 23.0693 33.5116 22.877 33.2859C22.3938 32.7189 22.1521 32.4353 22.0104 32.1389C21.6827 31.4532 21.6827 30.6561 22.0104 29.9705C22.1521 29.674 22.3938 29.3905 22.877 28.8234C23.0693 28.5977 23.1655 28.4849 23.2463 28.3644C23.4315 28.0881 23.56 27.7778 23.6244 27.4515C23.6525 27.3092 23.6643 27.1614 23.6879 26.8658C23.7471 26.1231 23.7768 25.7518 23.8862 25.442C24.1393 24.7254 24.7029 24.1618 25.4195 23.9087C25.7293 23.7992 26.1007 23.7696 26.8434 23.7103C27.1389 23.6868 27.2867 23.675 27.4291 23.6469C27.7554 23.5824 28.0656 23.4539 28.3419 23.2688C28.4624 23.188 28.5753 23.0918 28.801 22.8995ZM34.2381 28.3882C34.6354 28.7413 34.6712 29.3496 34.3181 29.7469L30.896 33.5967C30.7257 33.7883 30.4861 33.904 30.2302 33.9183C29.9743 33.9325 29.7233 33.8441 29.5328 33.6727L27.8218 32.1328C27.4267 31.7772 27.3947 31.1686 27.7502 30.7735C28.1058 30.3784 28.7144 30.3464 29.1095 30.702L30.1007 31.5941L32.8794 28.4681C33.2325 28.0708 33.8408 28.035 34.2381 28.3882Z" fill="white"/>
</g>
<defs>
<filter id="filter0_dd_3297_6052" x="0.764648" y="0.787109" width="60.5352" height="60.5352" filterUnits="userSpaceOnUse" color-interpolation-filters="sRGB">
<feFlood flood-opacity="0" result="BackgroundImageFix"/>
<feColorMatrix in="SourceAlpha" type="matrix" values="0 0 0 0 0 0 0 0 0 0 0 0 0 0 0 0 0 0 127 0" result="hardAlpha"/>
<feOffset/>
<feGaussianBlur stdDeviation="10.5"/>
<feComposite in2="hardAlpha" operator="out"/>
<feColorMatrix type="matrix" values="0 0 0 0 0.45 0 0 0 0 0.45 0 0 0 0 0.45 0 0 0 0.25 0"/>
<feBlend mode="normal" in2="BackgroundImageFix" result="effect1_dropShadow_3297_6052"/>
<feColorMatrix in="SourceAlpha" type="matrix" values="0 0 0 0 0 0 0 0 0 0 0 0 0 0 0 0 0 0 127 0" result="hardAlpha"/>
<feOffset dy="4"/>
<feGaussianBlur stdDeviation="2"/>
<feComposite in2="hardAlpha" operator="out"/>
<feColorMatrix type="matrix" values="0 0 0 0 0 0 0 0 0 0 0 0 0 0 0 0 0 0 0.25 0"/>
<feBlend mode="normal" in2="effect1_dropShadow_3297_6052" result="effect2_dropShadow_3297_6052"/>
<feBlend mode="normal" in="SourceGraphic" in2="effect2_dropShadow_3297_6052" result="shape"/>
</filter>
</defs>
</svg>
