<svg width="73" height="83" viewBox="0 0 73 83" fill="none" xmlns="http://www.w3.org/2000/svg">
<g filter="url(#filter0_d_2550_6688)">
<path fill-rule="evenodd" clip-rule="evenodd" d="M36.8282 24.0599C38.0331 23.0331 38.6356 22.5196 39.2655 22.2186C40.7225 21.5222 42.4162 21.5222 43.8731 22.2186C44.503 22.5196 45.1055 23.0331 46.3105 24.0599C46.79 24.4686 47.0298 24.6729 47.2859 24.8446C47.8729 25.238 48.5322 25.5111 49.2255 25.648C49.528 25.7077 49.842 25.7328 50.4701 25.7829C52.0482 25.9088 52.8373 25.9718 53.4956 26.2043C55.0182 26.7421 56.2159 27.9398 56.7537 29.4624C56.9862 30.1207 57.0492 30.9098 57.1751 32.4879C57.2252 33.116 57.2503 33.43 57.31 33.7325C57.4469 34.4258 57.7199 35.0851 58.1134 35.6721C58.2851 35.9282 58.4894 36.168 58.8981 36.6475C59.9249 37.8525 60.4384 38.455 60.7394 39.0849C61.4358 40.5418 61.4358 42.2355 60.7394 43.6925C60.4384 44.3224 59.9249 44.9249 58.8981 46.1298C58.4894 46.6094 58.2851 46.8492 58.1134 47.1052C57.7199 47.6923 57.4469 48.3515 57.31 49.0449C57.2503 49.3473 57.2252 49.6614 57.1751 50.2895C57.0492 51.8676 56.9862 52.6566 56.7537 53.3149C56.2159 54.8376 55.0182 56.0352 53.4956 56.573C52.8373 56.8055 52.0482 56.8685 50.4701 56.9944C49.842 57.0446 49.528 57.0696 49.2255 57.1293C48.5322 57.2662 47.8729 57.5393 47.2859 57.9327C47.0298 58.1044 46.79 58.3087 46.3105 58.7174C45.1055 59.7443 44.503 60.2577 43.8731 60.5588C42.4162 61.2551 40.7225 61.2551 39.2655 60.5588C38.6356 60.2577 38.0331 59.7443 36.8282 58.7174C36.3486 58.3087 36.1088 58.1044 35.8528 57.9327C35.2657 57.5393 34.6064 57.2662 33.9131 57.1293C33.6107 57.0696 33.2966 57.0446 32.6685 56.9944C31.0904 56.8685 30.3014 56.8055 29.643 56.573C28.1204 56.0352 26.9228 54.8376 26.385 53.3149C26.1525 52.6566 26.0895 51.8676 25.9636 50.2895C25.9134 49.6614 25.8884 49.3473 25.8287 49.0449C25.6918 48.3515 25.4187 47.6923 25.0253 47.1052C24.8536 46.8492 24.6492 46.6093 24.2406 46.1298C23.2137 44.9249 22.7003 44.3224 22.3992 43.6925C21.7029 42.2355 21.7029 40.5418 22.3992 39.0849C22.7003 38.455 23.2137 37.8525 24.2406 36.6475C24.6493 36.168 24.8536 35.9282 25.0253 35.6721C25.4187 35.0851 25.6918 34.4258 25.8287 33.7325C25.8884 33.43 25.9134 33.116 25.9636 32.4879C26.0895 30.9098 26.1525 30.1207 26.385 29.4624C26.9228 27.9398 28.1204 26.7421 29.643 26.2043C30.3014 25.9718 31.0904 25.9088 32.6685 25.7829C33.2966 25.7328 33.6107 25.7077 33.9131 25.648C34.6064 25.5111 35.2657 25.238 35.8528 24.8446C36.1088 24.6729 36.3486 24.4686 36.8282 24.0599ZM48.3814 35.7226C49.2256 36.473 49.3017 37.7657 48.5513 38.6098L41.2799 46.7902C40.9181 47.1972 40.4089 47.4431 39.8652 47.4734C39.3214 47.5037 38.7881 47.3159 38.3833 46.9516L34.7476 43.6795C33.908 42.9239 33.84 41.6308 34.5956 40.7913C35.3511 39.9517 36.6442 39.8837 37.4837 40.6393L39.5899 42.5348L45.4942 35.8925C46.2446 35.0483 47.5373 34.9723 48.3814 35.7226Z" fill="#00AB3A"/>
</g>
<defs>
<filter id="filter0_d_2550_6688" x="0.876953" y="0.696289" width="81.3848" height="81.3848" filterUnits="userSpaceOnUse" color-interpolation-filters="sRGB">
<feFlood flood-opacity="0" result="BackgroundImageFix"/>
<feColorMatrix in="SourceAlpha" type="matrix" values="0 0 0 0 0 0 0 0 0 0 0 0 0 0 0 0 0 0 127 0" result="hardAlpha"/>
<feOffset/>
<feGaussianBlur stdDeviation="10.5"/>
<feComposite in2="hardAlpha" operator="out"/>
<feColorMatrix type="matrix" values="0 0 0 0 0.45 0 0 0 0 0.45 0 0 0 0 0.45 0 0 0 0.25 0"/>
<feBlend mode="normal" in2="BackgroundImageFix" result="effect1_dropShadow_2550_6688"/>
<feBlend mode="normal" in="SourceGraphic" in2="effect1_dropShadow_2550_6688" result="shape"/>
</filter>
</defs>
</svg>
