<svg width="30" height="10" viewBox="0 0 30 10" fill="none" xmlns="http://www.w3.org/2000/svg">
<path fill-rule="evenodd" clip-rule="evenodd" d="M7.4676 9.4657H4.93484L3.03558 2.21991C2.94543 1.8866 2.75403 1.59194 2.47247 1.45307C1.76982 1.10406 0.995543 0.826305 0.150879 0.68622V0.407257H4.23095C4.79406 0.407257 5.2164 0.826305 5.28678 1.31298L6.27223 6.53961L8.80375 0.407257H11.2661L7.4676 9.4657ZM12.6738 9.4657H10.2819L12.2515 0.407257H14.6435L12.6738 9.4657ZM17.7383 2.91662C17.8087 2.42874 18.231 2.14977 18.7238 2.14977C19.498 2.07973 20.3415 2.21982 21.0454 2.56761L21.4677 0.61729C20.7638 0.338327 19.9895 0.198242 19.2869 0.198242C16.9653 0.198242 15.2759 1.45297 15.2759 3.19437C15.2759 4.51915 16.4726 5.21474 17.3172 5.63379C18.231 6.05163 18.583 6.33059 18.5126 6.74843C18.5126 7.37519 17.8087 7.65416 17.1061 7.65416C16.2614 7.65416 15.4167 7.44524 14.6437 7.09623L14.2213 9.04776C15.066 9.39556 15.9798 9.53564 16.8245 9.53564C19.4276 9.60448 21.0454 8.35096 21.0454 6.46947C21.0454 4.1001 17.7383 3.96122 17.7383 2.91662ZM29.4165 9.4657L27.5173 0.407257H25.4772C25.0549 0.407257 24.6325 0.68622 24.4918 1.10406L20.9748 9.4657H23.4372L23.9287 8.14213H26.9541L27.2357 9.4657H29.4165ZM25.8291 2.84647L26.5318 6.26044H24.5621L25.8291 2.84647Z" fill="#172B85"/>
</svg>
